<svg width="903" height="178" viewBox="0 0 903 178" fill="none" xmlns="http://www.w3.org/2000/svg">
<path d="M-23.8664 -24.2213C-21.0836 -29.2596 -13.7567 -29.2596 -10.9739 -24.2213L6.07255 6.64098C7.12862 8.55299 8.99928 9.89494 11.1673 10.2958L46.1618 16.7664C51.8747 17.8227 54.1388 24.703 50.1458 28.8732L25.6866 54.4177C24.1712 56.0002 23.4567 58.1715 23.7406 60.3313L28.3219 95.1926C29.0699 100.884 23.1423 105.136 17.8916 102.675L-14.2714 87.6001C-16.264 86.6662 -18.5763 86.6662 -20.5689 87.6001L-52.732 102.675C-57.9826 105.136 -63.9102 100.884 -63.1623 95.1926L-58.5809 60.3313C-58.2971 58.1715 -59.0116 56.0002 -60.5269 54.4177L-84.9862 28.8732C-88.9792 24.703 -86.715 17.8227 -81.0022 16.7664L-46.0076 10.2958C-43.8396 9.89494 -41.969 8.55298 -40.9129 6.64097L-23.8664 -24.2213Z" fill="white" fill-opacity="0.16"/>
<path d="M541.092 -24.2213C543.874 -29.2596 551.201 -29.2596 553.984 -24.2213L571.031 6.64098C572.087 8.55299 573.957 9.89494 576.125 10.2958L611.12 16.7664C616.833 17.8227 619.097 24.703 615.104 28.8732L590.645 54.4177C589.129 56.0002 588.415 58.1715 588.699 60.3313L593.28 95.1926C594.028 100.884 588.1 105.136 582.85 102.675L550.687 87.6001C548.694 86.6662 546.382 86.6662 544.389 87.6001L512.226 102.675C506.975 105.136 501.048 100.884 501.796 95.1926L506.377 60.3313C506.661 58.1715 505.946 56.0002 504.431 54.4177L479.972 28.8732C475.979 24.703 478.243 17.8227 483.956 16.7664L518.95 10.2958C521.118 9.89494 522.989 8.55298 524.045 6.64097L541.092 -24.2213Z" fill="white" fill-opacity="0.16"/>
<path d="M264.154 14.2866C265.198 12.3973 267.945 12.3973 268.989 14.2866L275.381 25.86C275.777 26.577 276.479 27.0802 277.292 27.2305L290.415 29.657C292.557 30.0531 293.406 32.6332 291.909 34.197L282.736 43.7762C282.168 44.3697 281.9 45.1839 282.007 45.9939L283.725 59.0668C284.005 61.201 281.782 62.7956 279.813 61.8727L267.752 56.2197C267.005 55.8694 266.138 55.8694 265.391 56.2197L253.329 61.8727C251.361 62.7956 249.138 61.201 249.418 59.0668L251.136 45.9939C251.243 45.1839 250.975 44.3697 250.406 43.7762L241.234 34.197C239.737 32.6332 240.586 30.0531 242.728 29.657L255.851 27.2305C256.664 27.0802 257.366 26.577 257.762 25.86L264.154 14.2866Z" fill="white" fill-opacity="0.16"/>
<path d="M-20.2157 204.255C-19.1721 202.365 -16.4245 202.365 -15.381 204.255L-8.98856 215.828C-8.59252 216.545 -7.89103 217.048 -7.07802 217.199L6.04493 219.625C8.18726 220.021 9.03631 222.601 7.53893 224.165L-1.63329 233.744C-2.20154 234.338 -2.46947 235.152 -2.36304 235.962L-0.645027 249.035C-0.364563 251.169 -2.58739 252.764 -4.55639 251.841L-16.6175 246.188C-17.3648 245.837 -18.2319 245.837 -18.9791 246.188L-31.0402 251.841C-33.0092 252.764 -35.2321 251.169 -34.9516 249.035L-33.2336 235.962C-33.1272 235.152 -33.3951 234.338 -33.9633 233.744L-43.1356 224.165C-44.6329 222.601 -43.7839 220.021 -41.6416 219.625L-28.5186 217.199C-27.7056 217.048 -27.0041 216.545 -26.6081 215.828L-20.2157 204.255Z" fill="white" fill-opacity="0.16"/>
<path d="M546.559 194.159C548.124 191.325 552.246 191.325 553.811 194.159L563.4 211.519C563.994 212.595 565.046 213.35 566.265 213.575L585.95 217.215C589.163 217.809 590.437 221.679 588.191 224.025L574.432 238.394C573.58 239.284 573.178 240.505 573.338 241.72L575.915 261.33C576.336 264.531 573.001 266.923 570.048 265.538L551.956 257.059C550.835 256.533 549.535 256.533 548.414 257.059L530.322 265.538C527.368 266.923 524.034 264.531 524.455 261.33L527.032 241.72C527.192 240.505 526.79 239.284 525.937 238.394L512.179 224.025C509.933 221.679 511.206 217.809 514.42 217.215L534.104 213.575C535.324 213.35 536.376 212.595 536.97 211.519L546.559 194.159Z" fill="white" fill-opacity="0.16"/>
<path d="M830.625 14.2866C831.668 12.3973 834.416 12.3973 835.459 14.2866L841.852 25.86C842.248 26.577 842.949 27.0802 843.762 27.2305L856.885 29.657C859.028 30.0531 859.877 32.6332 858.379 34.197L849.207 43.7762C848.639 44.3697 848.371 45.1839 848.477 45.9939L850.195 59.0668C850.476 61.201 848.253 62.7956 846.284 61.8727L834.223 56.2197C833.476 55.8694 832.608 55.8694 831.861 56.2197L819.8 61.8727C817.831 62.7956 815.608 61.201 815.889 59.0668L817.607 45.9939C817.713 45.1839 817.445 44.3697 816.877 43.7762L807.705 34.197C806.207 32.6332 807.056 30.0531 809.199 29.657L822.322 27.2305C823.135 27.0802 823.836 26.577 824.232 25.86L830.625 14.2866Z" fill="white" fill-opacity="0.16"/>
<path d="M264.154 398.764C265.198 396.874 267.945 396.874 268.989 398.764L275.381 410.337C275.777 411.054 276.479 411.557 277.292 411.708L290.415 414.134C292.557 414.53 293.406 417.11 291.909 418.674L282.736 428.253C282.168 428.847 281.9 429.661 282.007 430.471L283.725 443.544C284.005 445.678 281.782 447.273 279.813 446.35L267.752 440.697C267.005 440.347 266.138 440.347 265.391 440.697L253.329 446.35C251.361 447.273 249.138 445.678 249.418 443.544L251.136 430.471C251.243 429.661 250.975 428.847 250.406 428.253L241.234 418.674C239.737 417.11 240.586 414.53 242.728 414.134L255.851 411.708C256.664 411.557 257.366 411.054 257.762 410.337L264.154 398.764Z" fill="white" fill-opacity="0.16"/>
<path d="M-19.9117 574.095C-18.3464 571.261 -14.225 571.261 -12.6597 574.095L-3.07106 591.455C-2.47701 592.531 -1.42477 593.286 -0.205269 593.511L19.4792 597.151C22.6926 597.745 23.9662 601.615 21.7202 603.961L7.96184 618.33C7.10947 619.22 6.70755 620.441 6.8672 621.656L9.44423 641.266C9.86493 644.467 6.53068 646.859 3.57719 645.474L-14.5146 636.995C-15.6354 636.469 -16.936 636.469 -18.0569 636.995L-36.1486 645.474C-39.1021 646.859 -42.4363 644.467 -42.0156 641.266L-39.4386 621.656C-39.279 620.441 -39.6809 619.22 -40.5333 618.33L-54.2916 603.961C-56.5377 601.615 -55.2641 597.745 -52.0506 597.151L-32.3662 593.511C-31.1466 593.286 -30.0944 592.531 -29.5004 591.455L-19.9117 574.095Z" fill="white" fill-opacity="0.16"/>
<path d="M543.723 953.482C545.288 950.648 549.409 950.648 550.975 953.482L560.563 970.842C561.157 971.918 562.21 972.673 563.429 972.898L583.114 976.538C586.327 977.132 587.601 981.002 585.355 983.348L571.596 997.717C570.744 998.607 570.342 999.828 570.502 1001.04L573.079 1020.65C573.499 1023.85 570.165 1026.25 567.212 1024.86L549.12 1016.38C547.999 1015.86 546.698 1015.86 545.578 1016.38L527.486 1024.86C524.532 1026.25 521.198 1023.85 521.619 1020.65L524.196 1001.04C524.356 999.828 523.954 998.607 523.101 997.717L509.343 983.348C507.097 981.002 508.37 977.132 511.584 976.538L531.268 972.898C532.488 972.673 533.54 971.918 534.134 970.842L543.723 953.482Z" fill="white" fill-opacity="0.16"/>
<path d="M547.768 588.732C548.811 586.842 551.559 586.842 552.602 588.732L558.995 600.305C559.391 601.022 560.092 601.525 560.905 601.676L574.028 604.102C576.17 604.498 577.019 607.078 575.522 608.642L566.35 618.221C565.782 618.815 565.514 619.629 565.62 620.439L567.338 633.512C567.619 635.646 565.396 637.241 563.427 636.318L551.366 630.665C550.618 630.315 549.751 630.315 549.004 630.665L536.943 636.318C534.974 637.241 532.751 635.646 533.032 633.512L534.75 620.439C534.856 619.629 534.588 618.815 534.02 618.221L524.848 608.642C523.35 607.078 524.199 604.498 526.342 604.102L539.465 601.676C540.278 601.525 540.979 601.022 541.375 600.305L547.768 588.732Z" fill="white" fill-opacity="0.16"/>
<path d="M830.625 398.764C831.668 396.874 834.416 396.874 835.459 398.764L841.852 410.337C842.248 411.054 842.949 411.557 843.762 411.708L856.885 414.134C859.028 414.53 859.877 417.11 858.379 418.674L849.207 428.253C848.639 428.847 848.371 429.661 848.477 430.471L850.195 443.544C850.476 445.678 848.253 447.273 846.284 446.35L834.223 440.697C833.476 440.347 832.608 440.347 831.861 440.697L819.8 446.35C817.831 447.273 815.608 445.678 815.889 443.544L817.607 430.471C817.713 429.661 817.445 428.847 816.877 428.253L807.705 418.674C806.207 417.11 807.056 414.53 809.199 414.134L822.322 411.708C823.135 411.557 823.836 411.054 824.232 410.337L830.625 398.764Z" fill="white" fill-opacity="0.16"/>
<path d="M264.154 777.186C265.198 775.297 267.945 775.297 268.989 777.186L275.381 788.759C275.777 789.476 276.479 789.98 277.292 790.13L290.415 792.556C292.557 792.953 293.406 795.533 291.909 797.096L282.736 806.676C282.168 807.269 281.9 808.083 282.007 808.893L283.725 821.966C284.005 824.1 281.782 825.695 279.813 824.772L267.752 819.119C267.005 818.769 266.138 818.769 265.391 819.119L253.329 824.772C251.361 825.695 249.138 824.1 249.418 821.966L251.136 808.893C251.243 808.083 250.975 807.269 250.406 806.676L241.234 797.096C239.737 795.533 240.586 792.953 242.728 792.556L255.851 790.13C256.664 789.98 257.366 789.476 257.762 788.759L264.154 777.186Z" fill="white" fill-opacity="0.16"/>
<path d="M-20.2157 967.154C-19.1721 965.265 -16.4245 965.265 -15.381 967.154L-8.98856 978.727C-8.59252 979.444 -7.89103 979.948 -7.07802 980.098L6.04493 982.524C8.18726 982.921 9.03631 985.501 7.53893 987.064L-1.63329 996.644C-2.20154 997.237 -2.46947 998.051 -2.36304 998.861L-0.645027 1011.93C-0.364563 1014.07 -2.58739 1015.66 -4.55639 1014.74L-16.6175 1009.09C-17.3648 1008.74 -18.2319 1008.74 -18.9791 1009.09L-31.0402 1014.74C-33.0092 1015.66 -35.2321 1014.07 -34.9516 1011.93L-33.2336 998.861C-33.1272 998.051 -33.3951 997.237 -33.9633 996.644L-43.1356 987.064C-44.6329 985.501 -43.7839 982.921 -41.6416 982.524L-28.5186 980.098C-27.7056 979.948 -27.0041 979.444 -26.6081 978.727L-20.2157 967.154Z" fill="white" fill-opacity="0.16"/>
<path d="M830.625 777.186C831.668 775.297 834.416 775.297 835.459 777.186L841.852 788.759C842.248 789.476 842.949 789.98 843.762 790.13L856.885 792.556C859.028 792.953 859.877 795.533 858.379 797.096L849.207 806.676C848.639 807.269 848.371 808.083 848.477 808.893L850.195 821.966C850.476 824.1 848.253 825.695 846.284 824.772L834.223 819.119C833.476 818.769 832.608 818.769 831.861 819.119L819.8 824.772C817.831 825.695 815.608 824.1 815.889 821.966L817.607 808.893C817.713 808.083 817.445 807.269 816.877 806.676L807.705 797.096C806.207 795.533 807.056 792.953 809.199 792.556L822.322 790.13C823.135 789.98 823.836 789.476 824.232 788.759L830.625 777.186Z" fill="white" fill-opacity="0.16"/>
<path d="M264.154 1151.82C265.198 1149.93 267.945 1149.93 268.989 1151.82L275.381 1163.4C275.777 1164.11 276.479 1164.62 277.292 1164.77L290.415 1167.19C292.557 1167.59 293.406 1170.17 291.909 1171.73L282.736 1181.31C282.168 1181.91 281.9 1182.72 282.007 1183.53L283.725 1196.6C284.005 1198.74 281.782 1200.33 279.813 1199.41L267.752 1193.76C267.005 1193.41 266.138 1193.41 265.391 1193.76L253.329 1199.41C251.361 1200.33 249.138 1198.74 249.418 1196.6L251.136 1183.53C251.243 1182.72 250.975 1181.91 250.406 1181.31L241.234 1171.73C239.737 1170.17 240.586 1167.59 242.728 1167.19L255.851 1164.77C256.664 1164.62 257.366 1164.11 257.762 1163.4L264.154 1151.82Z" fill="white" fill-opacity="0.16"/>
<path d="M547.768 1341.79C548.811 1339.9 551.559 1339.9 552.602 1341.79L558.995 1353.37C559.391 1354.08 560.092 1354.59 560.905 1354.74L574.028 1357.16C576.17 1357.56 577.019 1360.14 575.522 1361.7L566.35 1371.28C565.782 1371.88 565.514 1372.69 565.62 1373.5L567.338 1386.57C567.619 1388.71 565.396 1390.3 563.427 1389.38L551.366 1383.73C550.618 1383.37 549.751 1383.37 549.004 1383.73L536.943 1389.38C534.974 1390.3 532.751 1388.71 533.032 1386.57L534.75 1373.5C534.856 1372.69 534.588 1371.88 534.02 1371.28L524.848 1361.7C523.35 1360.14 524.199 1357.56 526.342 1357.16L539.465 1354.74C540.278 1354.59 540.979 1354.08 541.375 1353.37L547.768 1341.79Z" fill="white" fill-opacity="0.16"/>
<path d="M830.625 1151.82C831.668 1149.93 834.416 1149.93 835.459 1151.82L841.852 1163.4C842.248 1164.11 842.949 1164.62 843.762 1164.77L856.885 1167.19C859.028 1167.59 859.877 1170.17 858.379 1171.73L849.207 1181.31C848.639 1181.91 848.371 1182.72 848.477 1183.53L850.195 1196.6C850.476 1198.74 848.253 1200.33 846.284 1199.41L834.223 1193.76C833.476 1193.41 832.608 1193.41 831.861 1193.76L819.8 1199.41C817.831 1200.33 815.608 1198.74 815.889 1196.6L817.607 1183.53C817.713 1182.72 817.445 1181.91 816.877 1181.31L807.705 1171.73C806.207 1170.17 807.056 1167.59 809.199 1167.19L822.322 1164.77C823.135 1164.62 823.836 1164.11 824.232 1163.4L830.625 1151.82Z" fill="white" fill-opacity="0.16"/>
<path d="M826.974 159.692C829.757 154.654 837.084 154.654 839.866 159.692L856.913 190.554C857.969 192.466 859.84 193.808 862.008 194.209L897.002 200.68C902.715 201.736 904.979 208.616 900.986 212.786L876.527 238.331C875.012 239.913 874.297 242.085 874.581 244.245L879.162 279.106C879.91 284.797 873.983 289.049 868.732 286.588L836.569 271.513C834.576 270.579 832.264 270.579 830.271 271.513L798.108 286.588C792.858 289.049 786.93 284.797 787.678 279.106L792.26 244.245C792.543 242.085 791.829 239.913 790.313 238.331L765.854 212.786C761.861 208.616 764.125 201.736 769.838 200.68L804.833 194.209C807.001 193.808 808.871 192.466 809.927 190.554L826.974 159.692Z" fill="white" fill-opacity="0.16"/>
<path d="M260.503 160.449C263.286 155.411 270.613 155.411 273.396 160.449L290.442 191.311C291.498 193.223 293.369 194.565 295.537 194.966L330.532 201.436C336.244 202.493 338.509 209.373 334.516 213.543L310.056 239.088C308.541 240.67 307.827 242.842 308.11 245.001L312.692 279.863C313.44 285.554 307.512 289.806 302.261 287.345L270.098 272.27C268.106 271.336 265.793 271.336 263.801 272.27L231.638 287.345C226.387 289.806 220.46 285.554 221.207 279.863L225.789 245.001C226.073 242.842 225.358 240.67 223.843 239.088L199.384 213.543C195.391 209.373 197.655 202.493 203.368 201.436L238.362 194.966C240.53 194.565 242.401 193.223 243.457 191.311L260.503 160.449Z" fill="white" fill-opacity="0.16"/>
<path d="M-23.8664 345.119C-21.0836 340.081 -13.7567 340.081 -10.9739 345.119L6.07255 375.981C7.12862 377.893 8.99928 379.235 11.1673 379.636L46.1618 386.107C51.8747 387.163 54.1388 394.043 50.1458 398.213L25.6866 423.758C24.1712 425.34 23.4567 427.512 23.7406 429.671L28.3219 464.533C29.0699 470.224 23.1423 474.476 17.8916 472.015L-14.2714 456.94C-16.264 456.006 -18.5763 456.006 -20.5689 456.94L-52.732 472.015C-57.9826 474.476 -63.9102 470.224 -63.1623 464.533L-58.5809 429.671C-58.2971 427.512 -59.0116 425.34 -60.5269 423.758L-84.9862 398.213C-88.9792 394.043 -86.715 387.163 -81.0022 386.107L-46.0076 379.636C-43.8396 379.235 -41.969 377.893 -40.9129 375.981L-23.8664 345.119Z" fill="white" fill-opacity="0.16"/>
<path d="M541.092 345.119C543.874 340.081 551.201 340.081 553.984 345.119L571.031 375.981C572.087 377.893 573.957 379.235 576.125 379.636L611.12 386.107C616.833 387.163 619.097 394.043 615.104 398.213L590.645 423.758C589.129 425.34 588.415 427.512 588.699 429.671L593.28 464.533C594.028 470.224 588.1 474.476 582.85 472.015L550.687 456.94C548.694 456.006 546.382 456.006 544.389 456.94L512.226 472.015C506.975 474.476 501.048 470.224 501.796 464.533L506.377 429.671C506.661 427.512 505.946 425.34 504.431 423.758L479.972 398.213C475.979 394.043 478.243 387.163 483.956 386.107L518.95 379.636C521.118 379.235 522.989 377.893 524.045 375.981L541.092 345.119Z" fill="white" fill-opacity="0.16"/>
<path d="M826.974 529.032C829.757 523.994 837.084 523.994 839.866 529.032L856.913 559.894C857.969 561.806 859.84 563.148 862.008 563.549L897.002 570.02C902.715 571.076 904.979 577.956 900.986 582.127L876.527 607.671C875.012 609.254 874.297 611.425 874.581 613.585L879.162 648.446C879.91 654.137 873.983 658.389 868.732 655.928L836.569 640.854C834.576 639.92 832.264 639.92 830.271 640.854L798.108 655.928C792.858 658.389 786.93 654.137 787.678 648.446L792.26 613.585C792.543 611.425 791.829 609.254 790.313 607.671L765.854 582.127C761.861 577.956 764.125 571.076 769.838 570.02L804.833 563.549C807.001 563.148 808.871 561.806 809.927 559.894L826.974 529.032Z" fill="white" fill-opacity="0.16"/>
<path d="M260.503 529.789C263.286 524.751 270.613 524.751 273.396 529.789L290.442 560.651C291.498 562.563 293.369 563.905 295.537 564.306L330.532 570.777C336.244 571.833 338.509 578.713 334.516 582.883L310.056 608.428C308.541 610.01 307.827 612.182 308.11 614.342L312.692 649.203C313.44 654.894 307.512 659.146 302.261 656.685L270.098 641.61C268.106 640.676 265.793 640.676 263.801 641.61L231.638 656.685C226.387 659.146 220.46 654.894 221.207 649.203L225.789 614.342C226.073 612.182 225.358 610.01 223.843 608.428L199.384 582.883C195.391 578.713 197.655 571.833 203.368 570.777L238.362 564.306C240.53 563.905 242.401 562.563 243.457 560.651L260.503 529.789Z" fill="white" fill-opacity="0.16"/>
<path d="M-23.8664 713.702C-21.0836 708.664 -13.7567 708.664 -10.9739 713.702L6.07255 744.565C7.12862 746.477 8.99928 747.818 11.1673 748.219L46.1618 754.69C51.8747 755.746 54.1388 762.627 50.1458 766.797L25.6866 792.341C24.1712 793.924 23.4567 796.095 23.7406 798.255L28.3219 833.116C29.0699 838.807 23.1423 843.06 17.8916 840.599L-14.2714 825.524C-16.264 824.59 -18.5763 824.59 -20.5689 825.524L-52.732 840.599C-57.9826 843.06 -63.9102 838.807 -63.1623 833.116L-58.5809 798.255C-58.2971 796.095 -59.0116 793.924 -60.5269 792.341L-84.9862 766.797C-88.9792 762.627 -86.715 755.746 -81.0022 754.69L-46.0076 748.219C-43.8396 747.818 -41.969 746.477 -40.9129 744.565L-23.8664 713.702Z" fill="white" fill-opacity="0.16"/>
<path d="M541.092 713.702C543.874 708.664 551.201 708.664 553.984 713.702L571.031 744.565C572.087 746.477 573.957 747.818 576.125 748.219L611.12 754.69C616.833 755.746 619.097 762.627 615.104 766.797L590.645 792.341C589.129 793.924 588.415 796.095 588.699 798.255L593.28 833.116C594.028 838.807 588.1 843.06 582.85 840.599L550.687 825.524C548.694 824.59 546.382 824.59 544.389 825.524L512.226 840.599C506.975 843.06 501.048 838.807 501.796 833.116L506.377 798.255C506.661 796.095 505.946 793.924 504.431 792.341L479.972 766.797C475.979 762.627 478.243 755.746 483.956 754.69L518.95 748.219C521.118 747.818 522.989 746.477 524.045 744.565L541.092 713.702Z" fill="white" fill-opacity="0.16"/>
<path d="M826.974 897.615C829.757 892.577 837.084 892.577 839.866 897.615L856.913 928.478C857.969 930.39 859.84 931.732 862.008 932.133L897.002 938.603C902.715 939.659 904.979 946.54 900.986 950.71L876.527 976.254C875.012 977.837 874.297 980.008 874.581 982.168L879.162 1017.03C879.91 1022.72 873.983 1026.97 868.732 1024.51L836.569 1009.44C834.576 1008.5 832.264 1008.5 830.271 1009.44L798.108 1024.51C792.858 1026.97 786.93 1022.72 787.678 1017.03L792.26 982.168C792.543 980.008 791.829 977.837 790.313 976.254L765.854 950.71C761.861 946.54 764.125 939.659 769.838 938.603L804.833 932.133C807.001 931.732 808.871 930.39 809.927 928.478L826.974 897.615Z" fill="white" fill-opacity="0.16"/>
<path d="M260.503 898.372C263.286 893.334 270.613 893.334 273.396 898.372L290.442 929.235C291.498 931.147 293.369 932.489 295.537 932.889L330.532 939.36C336.244 940.416 338.509 947.297 334.516 951.467L310.056 977.011C308.541 978.594 307.827 980.765 308.11 982.925L312.692 1017.79C313.44 1023.48 307.512 1027.73 302.261 1025.27L270.098 1010.19C268.106 1009.26 265.793 1009.26 263.801 1010.19L231.638 1025.27C226.387 1027.73 220.46 1023.48 221.207 1017.79L225.789 982.925C226.073 980.765 225.358 978.594 223.843 977.011L199.384 951.467C195.391 947.297 197.655 940.416 203.368 939.36L238.362 932.889C240.53 932.489 242.401 931.147 243.457 929.235L260.503 898.372Z" fill="white" fill-opacity="0.16"/>
<path d="M-23.8664 1102.72C-21.0836 1097.68 -13.7567 1097.68 -10.9739 1102.72L6.07255 1133.58C7.12862 1135.49 8.99928 1136.84 11.1673 1137.24L46.1618 1143.71C51.8747 1144.76 54.1388 1151.64 50.1458 1155.81L25.6866 1181.36C24.1712 1182.94 23.4567 1185.11 23.7406 1187.27L28.3219 1222.13C29.0699 1227.83 23.1423 1232.08 17.8916 1229.62L-14.2714 1214.54C-16.264 1213.61 -18.5763 1213.61 -20.5689 1214.54L-52.732 1229.62C-57.9826 1232.08 -63.9102 1227.83 -63.1623 1222.13L-58.5809 1187.27C-58.2971 1185.11 -59.0116 1182.94 -60.5269 1181.36L-84.9862 1155.81C-88.9792 1151.64 -86.715 1144.76 -81.0022 1143.71L-46.0076 1137.24C-43.8396 1136.84 -41.969 1135.49 -40.9129 1133.58L-23.8664 1102.72Z" fill="white" fill-opacity="0.16"/>
<path d="M541.092 1102.72C543.874 1097.68 551.201 1097.68 553.984 1102.72L571.031 1133.58C572.087 1135.49 573.957 1136.84 576.125 1137.24L611.12 1143.71C616.833 1144.76 619.097 1151.64 615.104 1155.81L590.645 1181.36C589.129 1182.94 588.415 1185.11 588.699 1187.27L593.28 1222.13C594.028 1227.83 588.1 1232.08 582.85 1229.62L550.687 1214.54C548.694 1213.61 546.382 1213.61 544.389 1214.54L512.226 1229.62C506.975 1232.08 501.048 1227.83 501.796 1222.13L506.377 1187.27C506.661 1185.11 505.946 1182.94 504.431 1181.36L479.972 1155.81C475.979 1151.64 478.243 1144.76 483.956 1143.71L518.95 1137.24C521.118 1136.84 522.989 1135.49 524.045 1133.58L541.092 1102.72Z" fill="white" fill-opacity="0.16"/>
<path d="M826.974 1286.63C829.757 1281.6 837.084 1281.6 839.866 1286.63L856.913 1317.5C857.969 1319.41 859.84 1320.75 862.008 1321.15L897.002 1327.62C902.715 1328.68 904.979 1335.56 900.986 1339.73L876.527 1365.27C875.012 1366.86 874.297 1369.03 874.581 1371.19L879.162 1406.05C879.91 1411.74 873.983 1415.99 868.732 1413.53L836.569 1398.45C834.576 1397.52 832.264 1397.52 830.271 1398.45L798.108 1413.53C792.858 1415.99 786.93 1411.74 787.678 1406.05L792.26 1371.19C792.543 1369.03 791.829 1366.86 790.313 1365.27L765.854 1339.73C761.861 1335.56 764.125 1328.68 769.838 1327.62L804.833 1321.15C807.001 1320.75 808.871 1319.41 809.927 1317.5L826.974 1286.63Z" fill="white" fill-opacity="0.16"/>
<path d="M260.503 1287.39C263.286 1282.35 270.613 1282.35 273.396 1287.39L290.442 1318.25C291.498 1320.16 293.369 1321.51 295.537 1321.91L330.532 1328.38C336.244 1329.43 338.509 1336.31 334.516 1340.48L310.056 1366.03C308.541 1367.61 307.827 1369.78 308.11 1371.94L312.692 1406.8C313.44 1412.5 307.512 1416.75 302.261 1414.29L270.098 1399.21C268.106 1398.28 265.793 1398.28 263.801 1399.21L231.638 1414.29C226.387 1416.75 220.46 1412.5 221.207 1406.8L225.789 1371.94C226.073 1369.78 225.358 1367.61 223.843 1366.03L199.384 1340.48C195.391 1336.31 197.655 1329.43 203.368 1328.38L238.362 1321.91C240.53 1321.51 242.401 1320.16 243.457 1318.25L260.503 1287.39Z" fill="white" fill-opacity="0.16"/>
<path d="M-21.2353 1331.15C-19.6699 1328.31 -15.5486 1328.31 -13.9832 1331.15L-4.39458 1348.51C-3.80054 1349.58 -2.74831 1350.34 -1.52879 1350.56L18.1556 1354.2C21.3691 1354.8 22.6427 1358.67 20.3966 1361.01L6.63831 1375.38C5.78593 1376.27 5.38402 1377.49 5.54367 1378.71L8.1207 1398.32C8.5414 1401.52 5.20715 1403.91 2.25366 1402.53L-15.8381 1394.05C-16.9589 1393.52 -18.2596 1393.52 -19.3804 1394.05L-37.4721 1402.53C-40.4256 1403.91 -43.7599 1401.52 -43.3392 1398.32L-40.7621 1378.71C-40.6025 1377.49 -41.0044 1376.27 -41.8568 1375.38L-55.6151 1361.01C-57.8612 1358.67 -56.5876 1354.8 -53.3741 1354.2L-33.6897 1350.56C-32.4702 1350.34 -31.4179 1349.58 -30.8239 1348.51L-21.2353 1331.15Z" fill="white" fill-opacity="0.16"/>
<path d="M120.031 105.816C121.596 102.982 125.718 102.982 127.283 105.816L136.872 123.177C137.466 124.252 138.518 125.007 139.737 125.232L159.422 128.872C162.635 129.466 163.909 133.336 161.663 135.682L147.904 150.051C147.052 150.941 146.65 152.162 146.81 153.377L149.387 172.987C149.807 176.188 146.473 178.58 143.52 177.196L125.428 168.716C124.307 168.191 123.007 168.191 121.886 168.716L103.794 177.196C100.84 178.58 97.5062 176.188 97.9269 172.987L100.504 153.377C100.664 152.162 100.262 150.941 99.4093 150.051L85.651 135.682C83.4049 133.336 84.6785 129.466 87.892 128.872L107.576 125.232C108.796 125.007 109.848 124.252 110.442 123.177L120.031 105.816Z" fill="white" fill-opacity="0.16"/>
<path d="M403.644 105.816C405.21 102.982 409.331 102.982 410.896 105.816L420.485 123.177C421.079 124.252 422.131 125.007 423.351 125.232L443.035 128.872C446.249 129.466 447.522 133.336 445.276 135.682L431.518 150.051C430.665 150.941 430.264 152.162 430.423 153.377L433 172.987C433.421 176.188 430.087 178.58 427.133 177.196L409.041 168.716C407.921 168.191 406.62 168.191 405.499 168.716L387.407 177.196C384.454 178.58 381.12 176.188 381.54 172.987L384.117 153.377C384.277 152.162 383.875 150.941 383.023 150.051L369.264 135.682C367.018 133.336 368.292 129.466 371.505 128.872L391.19 125.232C392.409 125.007 393.462 124.252 394.056 123.177L403.644 105.816Z" fill="white" fill-opacity="0.16"/>
<path d="M674.402 110.613C674.624 107.382 678.359 105.639 680.975 107.546L696.997 119.224C697.989 119.948 699.262 120.187 700.462 119.875L719.839 114.849C723.003 114.029 725.791 116.998 724.746 120.073L718.345 138.915C717.949 140.082 718.1 141.359 718.758 142.392L729.375 159.075C731.108 161.798 729.096 165.376 725.835 165.37L705.857 165.337C704.62 165.335 703.441 165.885 702.647 166.835L689.831 182.171C687.739 184.675 683.707 183.917 682.736 180.838L676.791 161.976C676.422 160.807 675.542 159.87 674.394 159.424L655.856 152.22C652.83 151.044 652.35 146.998 655.011 145.101L671.314 133.477C672.324 132.757 672.959 131.628 673.044 130.402L674.402 110.613Z" fill="white" fill-opacity="0.16"/>
<path d="M105.663 295.283C105.885 292.052 109.62 290.309 112.235 292.216L128.257 303.894C129.25 304.618 130.522 304.857 131.723 304.546L151.1 299.519C154.263 298.699 157.052 301.668 156.007 304.743L149.606 323.585C149.209 324.752 149.361 326.029 150.018 327.062L160.635 343.745C162.369 346.468 160.357 350.046 157.096 350.041L137.118 350.007C135.88 350.005 134.701 350.555 133.907 351.505L121.092 366.841C119 369.345 114.968 368.587 113.997 365.508L108.051 346.646C107.683 345.478 106.803 344.541 105.654 344.094L87.1168 336.89C84.0906 335.714 83.6104 331.668 86.2719 329.771L102.575 318.147C103.585 317.427 104.22 316.298 104.304 315.072L105.663 295.283Z" fill="white" fill-opacity="0.16"/>
<path d="M403.644 290.487C405.21 287.653 409.331 287.653 410.896 290.487L420.485 307.847C421.079 308.922 422.131 309.677 423.351 309.902L443.035 313.542C446.249 314.136 447.522 318.007 445.276 320.352L431.518 334.721C430.665 335.611 430.264 336.833 430.423 338.047L433 357.657C433.421 360.858 430.087 363.25 427.133 361.866L409.041 353.386C407.921 352.861 406.62 352.861 405.499 353.386L387.407 361.866C384.454 363.25 381.12 360.858 381.54 357.657L384.117 338.047C384.277 336.833 383.875 335.611 383.023 334.721L369.264 320.352C367.018 318.007 368.292 314.136 371.505 313.542L391.19 309.902C392.409 309.677 393.462 308.922 394.056 307.847L403.644 290.487Z" fill="white" fill-opacity="0.16"/>
<path d="M688.77 290.487C690.336 287.653 694.457 287.653 696.022 290.487L705.611 307.847C706.205 308.922 707.257 309.677 708.477 309.902L728.161 313.542C731.375 314.136 732.648 318.007 730.402 320.352L716.644 334.721C715.792 335.611 715.39 336.833 715.549 338.047L718.126 357.657C718.547 360.858 715.213 363.25 712.259 361.866L694.168 353.386C693.047 352.861 691.746 352.861 690.625 353.386L672.533 361.866C669.58 363.25 666.246 360.858 666.666 357.657L669.243 338.047C669.403 336.833 669.001 335.611 668.149 334.721L654.391 320.352C652.144 318.007 653.418 314.136 656.631 313.542L676.316 309.902C677.535 309.677 678.588 308.922 679.182 307.847L688.77 290.487Z" fill="white" fill-opacity="0.16"/>
<path d="M120.031 481.968C121.596 479.134 125.718 479.134 127.283 481.968L136.872 499.328C137.466 500.404 138.518 501.159 139.737 501.384L159.422 505.024C162.635 505.618 163.909 509.488 161.663 511.834L147.904 526.203C147.052 527.093 146.65 528.314 146.81 529.529L149.387 549.139C149.807 552.34 146.473 554.732 143.52 553.347L125.428 544.868C124.307 544.342 123.007 544.342 121.886 544.868L103.794 553.347C100.84 554.732 97.5062 552.34 97.9269 549.139L100.504 529.529C100.664 528.314 100.262 527.093 99.4093 526.203L85.651 511.834C83.4049 509.488 84.6785 505.618 87.892 505.024L107.576 501.384C108.796 501.159 109.848 500.404 110.442 499.328L120.031 481.968Z" fill="white" fill-opacity="0.16"/>
<path d="M403.644 481.968C405.21 479.134 409.331 479.134 410.896 481.968L420.485 499.328C421.079 500.404 422.131 501.159 423.351 501.384L443.035 505.024C446.249 505.618 447.522 509.488 445.276 511.834L431.518 526.203C430.665 527.093 430.264 528.314 430.423 529.529L433 549.139C433.421 552.34 430.087 554.732 427.133 553.347L409.041 544.868C407.921 544.342 406.62 544.342 405.499 544.868L387.407 553.347C384.454 554.732 381.12 552.34 381.54 549.139L384.117 529.529C384.277 528.314 383.875 527.093 383.023 526.203L369.264 511.834C367.018 509.488 368.292 505.618 371.505 505.024L391.19 501.384C392.409 501.159 393.462 500.404 394.056 499.328L403.644 481.968Z" fill="white" fill-opacity="0.16"/>
<path d="M674.402 486.765C674.624 483.534 678.359 481.791 680.975 483.698L696.997 495.376C697.989 496.099 699.262 496.339 700.462 496.027L719.839 491.001C723.003 490.18 725.791 493.149 724.746 496.225L718.345 515.066C717.949 516.234 718.1 517.511 718.758 518.544L729.375 535.226C731.108 537.95 729.096 541.528 725.835 541.522L705.857 541.489C704.62 541.486 703.441 542.036 702.647 542.987L689.831 558.323C687.739 560.827 683.707 560.069 682.736 556.99L676.791 538.128C676.422 536.959 675.542 536.022 674.394 535.576L655.856 528.372C652.83 527.196 652.35 523.15 655.011 521.252L671.314 509.629C672.324 508.909 672.959 507.779 673.044 506.553L674.402 486.765Z" fill="white" fill-opacity="0.16"/>
<path d="M105.663 675.976C105.885 672.746 109.62 671.003 112.235 672.909L128.257 684.587C129.25 685.311 130.522 685.55 131.723 685.239L151.1 680.212C154.263 679.392 157.052 682.361 156.007 685.437L149.606 704.278C149.209 705.445 149.361 706.722 150.018 707.756L160.635 724.438C162.369 727.161 160.357 730.739 157.096 730.734L137.118 730.7C135.88 730.698 134.701 731.248 133.907 732.198L121.092 747.535C119 750.038 114.968 749.281 113.997 746.201L108.051 727.339C107.683 726.171 106.803 725.234 105.654 724.787L87.1168 717.584C84.0906 716.408 83.6104 712.361 86.2719 710.464L102.575 698.84C103.585 698.12 104.22 696.991 104.304 695.765L105.663 675.976Z" fill="white" fill-opacity="0.16"/>
<path d="M403.644 671.179C405.21 668.345 409.331 668.345 410.896 671.179L420.485 688.539C421.079 689.615 422.131 690.37 423.351 690.595L443.035 694.235C446.249 694.829 447.522 698.699 445.276 701.045L431.518 715.414C430.665 716.304 430.264 717.525 430.423 718.74L433 738.35C433.421 741.551 430.087 743.943 427.133 742.559L409.041 734.079C407.921 733.554 406.62 733.554 405.499 734.079L387.407 742.559C384.454 743.943 381.12 741.551 381.54 738.35L384.117 718.74C384.277 717.525 383.875 716.304 383.023 715.414L369.264 701.045C367.018 698.699 368.292 694.829 371.505 694.235L391.19 690.595C392.409 690.37 393.462 689.615 394.056 688.539L403.644 671.179Z" fill="white" fill-opacity="0.16"/>
<path d="M688.77 671.179C690.336 668.345 694.457 668.345 696.022 671.179L705.611 688.539C706.205 689.615 707.257 690.37 708.477 690.595L728.161 694.235C731.375 694.829 732.648 698.699 730.402 701.045L716.644 715.414C715.792 716.304 715.39 717.525 715.549 718.74L718.126 738.35C718.547 741.551 715.213 743.943 712.259 742.559L694.168 734.079C693.047 733.554 691.746 733.554 690.625 734.079L672.533 742.559C669.58 743.943 666.246 741.551 666.666 738.35L669.243 718.74C669.403 717.525 669.001 716.304 668.149 715.414L654.391 701.045C652.144 698.699 653.418 694.829 656.631 694.235L676.316 690.595C677.535 690.37 678.588 689.615 679.182 688.539L688.77 671.179Z" fill="white" fill-opacity="0.16"/>
<path d="M120.031 861.147C121.596 858.313 125.718 858.313 127.283 861.147L136.872 878.507C137.466 879.583 138.518 880.338 139.737 880.563L159.422 884.203C162.635 884.797 163.909 888.667 161.663 891.013L147.904 905.382C147.052 906.272 146.65 907.493 146.81 908.708L149.387 928.318C149.807 931.519 146.473 933.911 143.52 932.527L125.428 924.047C124.307 923.522 123.007 923.522 121.886 924.047L103.794 932.527C100.84 933.911 97.5062 931.519 97.9269 928.318L100.504 908.708C100.664 907.493 100.262 906.272 99.4093 905.382L85.651 891.013C83.4049 888.667 84.6785 884.797 87.892 884.203L107.576 880.563C108.796 880.338 109.848 879.583 110.442 878.507L120.031 861.147Z" fill="white" fill-opacity="0.16"/>
<path d="M403.644 861.147C405.21 858.313 409.331 858.313 410.896 861.147L420.485 878.507C421.079 879.583 422.131 880.338 423.351 880.563L443.035 884.203C446.249 884.797 447.522 888.667 445.276 891.013L431.518 905.382C430.665 906.272 430.264 907.493 430.423 908.708L433 928.318C433.421 931.519 430.087 933.911 427.133 932.527L409.041 924.047C407.921 923.522 406.62 923.522 405.499 924.047L387.407 932.527C384.454 933.911 381.12 931.519 381.54 928.318L384.117 908.708C384.277 907.493 383.875 906.272 383.023 905.382L369.264 891.013C367.018 888.667 368.292 884.797 371.505 884.203L391.19 880.563C392.409 880.338 393.462 879.583 394.056 878.507L403.644 861.147Z" fill="white" fill-opacity="0.16"/>
<path d="M674.402 865.944C674.624 862.714 678.359 860.971 680.975 862.877L696.997 874.556C697.989 875.279 699.262 875.518 700.462 875.207L719.839 870.18C723.003 869.36 725.791 872.329 724.746 875.405L718.345 894.246C717.949 895.413 718.1 896.69 718.758 897.724L729.375 914.406C731.108 917.129 729.096 920.707 725.835 920.702L705.857 920.668C704.62 920.666 703.441 921.216 702.647 922.166L689.831 937.503C687.739 940.006 683.707 939.249 682.736 936.169L676.791 917.307C676.422 916.139 675.542 915.202 674.394 914.755L655.856 907.552C652.83 906.376 652.35 902.329 655.011 900.432L671.314 888.808C672.324 888.088 672.959 886.959 673.044 885.733L674.402 865.944Z" fill="white" fill-opacity="0.16"/>
<path d="M105.663 1052.88C105.885 1049.65 109.62 1047.91 112.235 1049.82L128.257 1061.5C129.25 1062.22 130.522 1062.46 131.723 1062.15L151.1 1057.12C154.263 1056.3 157.052 1059.27 156.007 1062.35L149.606 1081.19C149.209 1082.35 149.361 1083.63 150.018 1084.66L160.635 1101.35C162.369 1104.07 160.357 1107.65 157.096 1107.64L137.118 1107.61C135.88 1107.61 134.701 1108.16 133.907 1109.11L121.092 1124.44C119 1126.95 114.968 1126.19 113.997 1123.11L108.051 1104.25C107.683 1103.08 106.803 1102.14 105.654 1101.7L87.1168 1094.49C84.0906 1093.32 83.6104 1089.27 86.2719 1087.37L102.575 1075.75C103.585 1075.03 104.22 1073.9 104.304 1072.67L105.663 1052.88Z" fill="white" fill-opacity="0.16"/>
<path d="M403.644 1048.09C405.21 1045.25 409.331 1045.25 410.896 1048.09L420.485 1065.45C421.079 1066.52 422.131 1067.28 423.351 1067.5L443.035 1071.14C446.249 1071.74 447.522 1075.61 445.276 1077.95L431.518 1092.32C430.665 1093.21 430.264 1094.43 430.423 1095.65L433 1115.26C433.421 1118.46 430.087 1120.85 427.133 1119.47L409.041 1110.99C407.921 1110.46 406.62 1110.46 405.499 1110.99L387.407 1119.47C384.454 1120.85 381.12 1118.46 381.54 1115.26L384.117 1095.65C384.277 1094.43 383.875 1093.21 383.023 1092.32L369.264 1077.95C367.018 1075.61 368.292 1071.74 371.505 1071.14L391.19 1067.5C392.409 1067.28 393.462 1066.52 394.056 1065.45L403.644 1048.09Z" fill="white" fill-opacity="0.16"/>
<path d="M688.77 1048.09C690.336 1045.25 694.457 1045.25 696.022 1048.09L705.611 1065.45C706.205 1066.52 707.257 1067.28 708.477 1067.5L728.161 1071.14C731.375 1071.74 732.648 1075.61 730.402 1077.95L716.644 1092.32C715.792 1093.21 715.39 1094.43 715.549 1095.65L718.126 1115.26C718.547 1118.46 715.213 1120.85 712.259 1119.47L694.168 1110.99C693.047 1110.46 691.746 1110.46 690.625 1110.99L672.533 1119.47C669.58 1120.85 666.246 1118.46 666.666 1115.26L669.243 1095.65C669.403 1094.43 669.001 1093.21 668.149 1092.32L654.391 1077.95C652.144 1075.61 653.418 1071.74 656.631 1071.14L676.316 1067.5C677.535 1067.28 678.588 1066.52 679.182 1065.45L688.77 1048.09Z" fill="white" fill-opacity="0.16"/>
<path d="M120.031 1239.57C121.596 1236.74 125.718 1236.74 127.283 1239.57L136.872 1256.93C137.466 1258.01 138.518 1258.76 139.737 1258.99L159.422 1262.63C162.635 1263.22 163.909 1267.09 161.663 1269.44L147.904 1283.8C147.052 1284.69 146.65 1285.92 146.81 1287.13L149.387 1306.74C149.807 1309.94 146.473 1312.33 143.52 1310.95L125.428 1302.47C124.307 1301.94 123.007 1301.94 121.886 1302.47L103.794 1310.95C100.84 1312.33 97.5062 1309.94 97.9269 1306.74L100.504 1287.13C100.664 1285.92 100.262 1284.69 99.4093 1283.8L85.651 1269.44C83.4049 1267.09 84.6785 1263.22 87.892 1262.63L107.576 1258.99C108.796 1258.76 109.848 1258.01 110.442 1256.93L120.031 1239.57Z" fill="white" fill-opacity="0.16"/>
<path d="M403.644 1239.57C405.21 1236.74 409.331 1236.74 410.896 1239.57L420.485 1256.93C421.079 1258.01 422.131 1258.76 423.351 1258.99L443.035 1262.63C446.249 1263.22 447.522 1267.09 445.276 1269.44L431.518 1283.8C430.665 1284.69 430.264 1285.92 430.423 1287.13L433 1306.74C433.421 1309.94 430.087 1312.33 427.133 1310.95L409.041 1302.47C407.921 1301.94 406.62 1301.94 405.499 1302.47L387.407 1310.95C384.454 1312.33 381.12 1309.94 381.54 1306.74L384.117 1287.13C384.277 1285.92 383.875 1284.69 383.023 1283.8L369.264 1269.44C367.018 1267.09 368.292 1263.22 371.505 1262.63L391.19 1258.99C392.409 1258.76 393.462 1258.01 394.056 1256.93L403.644 1239.57Z" fill="white" fill-opacity="0.16"/>
<path d="M674.402 1244.37C674.624 1241.14 678.359 1239.39 680.975 1241.3L696.997 1252.98C697.989 1253.7 699.262 1253.94 700.462 1253.63L719.839 1248.6C723.003 1247.78 725.791 1250.75 724.746 1253.83L718.345 1272.67C717.949 1273.84 718.1 1275.11 718.758 1276.15L729.375 1292.83C731.108 1295.55 729.096 1299.13 725.835 1299.12L705.857 1299.09C704.62 1299.09 703.441 1299.64 702.647 1300.59L689.831 1315.93C687.739 1318.43 683.707 1317.67 682.736 1314.59L676.791 1295.73C676.422 1294.56 675.542 1293.62 674.394 1293.18L655.856 1285.97C652.83 1284.8 652.35 1280.75 655.011 1278.85L671.314 1267.23C672.324 1266.51 672.959 1265.38 673.044 1264.16L674.402 1244.37Z" fill="white" fill-opacity="0.16"/>
</svg>
