<svg xmlns="http://www.w3.org/2000/svg" width="38" height="38" viewBox="0 0 38 38" fill="none">
  <path fill-rule="evenodd" clip-rule="evenodd" d="M19.0001 34.8334C27.7446 34.8334 34.8334 27.7446 34.8334 19.0001C34.8334 10.2556 27.7446 3.16675 19.0001 3.16675C10.2556 3.16675 3.16675 10.2556 3.16675 19.0001C3.16675 27.7446 10.2556 34.8334 19.0001 34.8334ZM26.2708 14.9792C26.6734 14.4615 26.5802 13.7154 26.0625 13.3128C25.5448 12.9101 24.7987 13.0034 24.3961 13.5211L18.0516 21.6782C17.9106 21.8596 17.6452 21.8831 17.4744 21.7294L13.4612 18.1175C12.9737 17.6787 12.2228 17.7183 11.7841 18.2057C11.3454 18.6932 11.3849 19.4441 11.8724 19.8828L15.8856 23.4947C17.0812 24.5708 18.9388 24.406 19.9264 23.1363L26.2708 14.9792Z" fill="#09A451"/>
</svg>