<svg xmlns="http://www.w3.org/2000/svg" width="38" height="38" viewBox="0 0 38 38" fill="none">
  <path fill-rule="evenodd" clip-rule="evenodd" d="M28.5001 3.16675H9.50008C6.00228 3.16675 3.16675 6.00228 3.16675 9.50008V28.5001C3.16675 31.9979 6.00228 34.8334 9.50008 34.8334H28.5001C31.9979 34.8334 34.8334 31.9979 34.8334 28.5001V9.50008C34.8334 6.00228 31.9979 3.16675 28.5001 3.16675ZM15.0331 22.8573C14.5428 22.4272 13.7965 22.4729 13.3625 22.9612C12.9268 23.4513 12.971 24.2019 13.4612 24.6376L13.8967 24.9723C14.1537 25.1511 14.5225 25.3818 14.9937 25.6103C15.9364 26.0673 17.3008 26.5209 19.0001 26.5209C20.6994 26.5209 22.0638 26.0673 23.0064 25.6103C23.4777 25.3818 23.8465 25.1511 24.1035 24.9723C24.2322 24.8828 24.3336 24.8058 24.4064 24.748L24.539 24.6376C25.0292 24.2019 25.0734 23.4513 24.6376 22.9612C24.2037 22.4729 23.4573 22.4272 22.967 22.8573L22.7472 23.0227C22.5775 23.1407 22.3154 23.3059 21.9703 23.4732C21.2801 23.8079 20.2695 24.1459 19.0001 24.1459C17.7306 24.1459 16.7201 23.8079 16.0299 23.4732C15.6848 23.3059 15.4227 23.1407 15.2529 23.0227L15.0331 22.8573ZM26.9167 15.8334C26.9167 16.7079 26.2079 17.4167 25.3334 17.4167C24.459 17.4167 23.7501 16.7079 23.7501 15.8334C23.7501 14.959 24.459 14.2501 25.3334 14.2501C26.2079 14.2501 26.9167 14.959 26.9167 15.8334ZM12.6667 17.4167C13.5412 17.4167 14.2501 16.7079 14.2501 15.8334C14.2501 14.959 13.5412 14.2501 12.6667 14.2501C11.7923 14.2501 11.0834 14.959 11.0834 15.8334C11.0834 16.7079 11.7923 17.4167 12.6667 17.4167Z" fill="#09A451"/>
</svg>