<svg width="700" height="700" viewBox="0 0 700 700" fill="none" xmlns="http://www.w3.org/2000/svg">
<rect width="700" height="700" rx="169" fill="#03A551"/>
<path d="M223.721 513.365C259.089 483.189 239.103 530.886 235.106 546.246L235.102 546.256C232.304 553.531 228.522 563.365 239.31 569.286C247.741 573.914 271.08 543.416 277.076 530.482C314.249 463.787 296.262 459.906 289.067 457.723C275.011 453.459 273.285 421.205 287.276 390.889C301.266 360.573 329.965 293.878 332.843 269.625C335.721 245.372 326.048 254.669 320.852 262.349C277.682 342.383 248.903 348.446 239.31 350.872C229.716 353.297 216.421 354.006 209.564 356.78C203.568 359.205 181.532 368.951 173.356 373.912C168.56 376.822 124.191 400.994 102.606 412.716C101.807 414.333 101.167 418.052 105.005 419.992C109.801 422.417 144.577 415.141 160.166 409.078C172.637 404.228 193.342 402.207 202.136 401.802C208.132 412.716 202.136 439.394 179.352 495.175C156.568 550.957 122.992 592.187 142.178 590.974C161.365 589.761 213.032 522.484 223.721 513.365Z" fill="white"/>
<path d="M197.891 299.91C200.183 320.542 218.579 335.389 238.982 333.071C259.384 330.754 275.831 315.081 273.539 294.449C266.363 273.299 251.086 256.04 230.683 258.358C210.281 260.675 195.6 279.279 197.891 299.91Z" fill="white"/>
<path d="M346.473 112.947C348.413 109.018 354.018 109.018 355.958 112.947L372.327 146.101C373.098 147.661 374.587 148.743 376.309 148.993L412.912 154.309C417.249 154.939 418.981 160.268 415.843 163.326L389.357 189.133C388.11 190.347 387.542 192.097 387.836 193.812L394.088 230.252C394.829 234.57 390.295 237.864 386.415 235.825L353.677 218.62C352.136 217.81 350.295 217.81 348.755 218.62L316.016 235.825C312.137 237.864 307.602 234.57 308.343 230.252L314.596 193.812C314.89 192.097 314.321 190.347 313.075 189.133L286.589 163.326C283.45 160.268 285.182 154.939 289.52 154.309L326.122 148.993C327.845 148.743 329.334 147.661 330.104 146.101L346.473 112.947Z" fill="#F6C401"/>
<path d="M470.651 505.568C435.292 475.206 460.593 523.197 464.589 538.652C467.386 545.973 471.108 563.195 460.318 569.155C451.889 573.811 433.418 540.075 427.424 527.06C390.26 459.954 408.242 456.05 415.436 453.853C429.488 449.563 427.024 400.779 413.038 370.276C399.051 339.773 369.684 292.048 366.807 267.645C363.93 243.243 377.871 257.478 383.066 265.205C426.225 345.733 454.998 351.834 464.589 354.274C474.18 356.714 487.367 360.515 493.361 362.955C499.356 365.396 520.576 372.041 526.861 375.156C576.083 399.559 576.014 402.406 597.593 414.2C598.393 415.827 596.703 419.569 592.867 421.521C588.071 423.961 558.236 416.276 542.651 410.175C530.183 405.295 506.948 396.305 498.157 395.899C492.162 406.88 484.969 433.722 507.748 489.847C530.526 545.973 571.287 592.197 552.105 590.976C532.924 589.756 481.337 514.744 470.651 505.568Z" fill="white"/>
<path d="M423.827 433.489C431.515 401.999 430.436 415.405 428.621 395.898L516.973 394.559C490.598 403.1 492.443 416.344 493.498 424.817C498.157 462.23 520.838 480.448 531.723 497.168C542.608 513.888 556.833 536.732 547.309 532.552C537.784 528.372 499.056 517.736 472.98 522.791C447.804 527.671 413.382 511.981 398.868 510.123C392.49 444.97 419.338 451.871 423.827 433.489Z" fill="white"/>
<path d="M512.869 303.031C510.578 323.79 492.186 338.728 471.789 336.396C451.392 334.065 434.949 318.295 437.24 297.536C444.414 276.256 459.688 258.89 480.085 261.222C500.482 263.553 515.16 282.272 512.869 303.031Z" fill="white"/>
<path d="M500.961 323.021C504.871 316.875 502.865 302.702 501.373 296.384C507.393 294.384 521.325 294.708 528.901 312.001C536.476 329.293 545.901 335.47 549.666 336.396C528.312 349.096 508.299 332.771 500.961 323.021Z" fill="white"/>
</svg>
