<svg width="696" height="764" viewBox="0 0 696 764" fill="none" xmlns="http://www.w3.org/2000/svg">
<g opacity="0.08">
<path fill-rule="evenodd" clip-rule="evenodd" d="M267.549 -14.3606C270.838 -21.0256 280.342 -21.0256 283.632 -14.3606L311.389 41.881C312.695 44.5277 315.22 46.3622 318.141 46.7866L380.207 55.8054C387.562 56.8741 390.499 65.9131 385.177 71.1011L340.265 114.879C338.152 116.939 337.187 119.907 337.686 122.816L348.289 184.632C349.545 191.958 341.856 197.544 335.277 194.085L279.763 164.9C277.151 163.526 274.03 163.526 271.418 164.9L215.904 194.085C209.325 197.544 201.636 191.958 202.892 184.632L213.495 122.816C213.994 119.907 213.029 116.939 210.916 114.879L166.004 71.101C160.682 65.913 163.619 56.8741 170.974 55.8054L233.04 46.7866C235.961 46.3622 238.486 44.5277 239.792 41.881L267.549 -14.3606ZM59.3994 664.895C109.955 621.743 93.8112 672.464 83.4346 705.065C81.5017 711.138 79.769 716.582 78.7047 720.673L78.6983 720.69C73.9544 733.031 67.5412 749.714 85.8334 759.758C100.13 767.608 139.706 715.873 149.873 693.931C211.713 582.937 183.53 574.497 170.919 570.721C170.676 570.648 170.438 570.577 170.207 570.507C146.372 563.273 143.446 508.557 167.168 457.131C190.891 405.704 239.557 292.565 244.437 251.423C249.317 210.281 232.914 226.052 224.103 239.081C152.103 372.619 103.709 384.761 86.6606 389.039C86.3762 389.11 86.1004 389.18 85.8334 389.247C78.8669 391.009 70.7489 392.237 62.8302 393.435L62.8292 393.435C52.258 395.035 42.042 396.58 35.3945 399.27C25.2276 403.384 -12.1386 419.916 -26.0023 428.332C-34.1357 433.268 -109.371 474.273 -145.972 494.158C-147.327 496.901 -148.412 503.209 -141.905 506.5C-133.771 510.615 -74.8035 498.272 -48.3697 487.987C-27.2225 479.758 7.88705 476.33 22.7985 475.644C32.9654 494.158 22.7987 539.414 -15.8354 634.039C-30.6117 670.23 -48.0648 702.81 -62.1657 729.132C-84.9331 771.633 -98.961 797.818 -78.8701 796.548C-55.4329 795.066 -3.41232 735.425 30.6219 696.404C43.8316 681.259 54.3318 669.221 59.3994 664.895ZM15.6009 302.798C19.4865 337.797 50.6816 362.982 85.2771 359.051C119.873 355.12 147.762 328.533 143.876 293.534C131.708 257.656 105.802 228.379 71.2062 232.31C36.6106 236.24 11.7153 267.799 15.6009 302.798ZM501.315 678.76C494.616 679.031 488.137 679.706 482.063 680.884C474.685 682.315 466.838 682.704 458.779 682.351L459.322 683.763L459.432 684.047C463.003 693.318 466.321 701.933 467.835 707.791C472.578 720.21 478.889 749.425 460.593 759.535C446.299 767.434 414.98 710.205 404.816 688.128C401.186 681.571 397.867 675.37 394.836 669.505C392.26 668.751 389.74 668.004 387.288 667.277L387.287 667.277L387.285 667.277C374.75 663.561 363.971 660.365 356.394 659.395C348.921 583.033 368.344 565.019 383.575 550.894C390.389 544.575 396.363 539.034 398.715 529.396C399.274 527.109 399.805 524.961 400.31 522.942C401.395 492.82 394.211 452.25 380.421 422.164C373.107 406.206 363.312 387.469 353.119 367.971C330.261 324.247 305.402 276.694 302.028 248.065C297.149 206.67 320.79 230.817 329.599 243.926C401.582 378.288 449.964 390.505 467.008 394.809L467.308 394.885C467.487 394.93 467.663 394.975 467.835 395.019C484.098 399.158 506.46 405.606 516.624 409.745C520.57 411.352 528.406 414.034 537.141 417.023L537.147 417.025L537.15 417.026L537.159 417.029L537.16 417.03C550.923 421.74 566.911 427.211 573.428 430.443C629.106 458.057 647.591 469.4 664.59 479.83L664.591 479.831C673.074 485.037 681.187 490.015 693.369 496.675C694.724 499.435 691.859 505.782 685.353 509.094C677.222 513.234 626.631 500.197 600.204 489.848C584.96 483.879 560.226 474.286 542.024 469.139C512.935 483.228 515.251 501.811 516.818 514.382L516.856 514.685C522.855 562.885 546.482 592.304 565.586 616.093L565.587 616.094C571.637 623.628 577.234 630.597 581.674 637.419C600.132 665.783 624.253 704.533 608.102 697.443C601.748 694.653 587.731 690.169 570.371 686.277C579.468 703.082 588.588 718.649 596.688 732.475C620.053 772.354 634.927 797.742 616.235 796.552C593.534 795.108 544.064 732.684 510.091 689.814C507.029 685.951 504.094 682.247 501.315 678.76ZM532.371 345.547C519.253 359.332 500.228 367 480.044 364.692C445.457 360.737 417.575 333.985 421.46 298.77C433.625 262.671 459.525 233.213 494.112 237.168C524.989 240.699 548.138 266.385 549.984 296.91C559.531 299.772 569.834 307.201 576.888 323.308C589.733 352.642 605.715 363.12 612.1 364.692C578.375 384.756 546.623 362.112 532.371 345.547Z" fill="url(#paint0_linear_26_3060)" fill-opacity="0.3"/>
<path d="M283.632 -14.3606L285.011 -15.0413V-15.0413L283.632 -14.3606ZM267.549 -14.3606L266.17 -15.0412V-15.0412L267.549 -14.3606ZM311.389 41.881L310.01 42.5617L311.389 41.881ZM318.141 46.7866L318.362 45.2647L318.141 46.7866ZM380.207 55.8054L380.428 54.2834L380.207 55.8054ZM385.177 71.1011L384.103 69.9998L385.177 71.1011ZM340.265 114.879L341.339 115.98L340.265 114.879ZM337.686 122.816L336.171 123.076V123.076L337.686 122.816ZM348.289 184.632L349.804 184.372L348.289 184.632ZM335.277 194.085L335.993 192.724L335.277 194.085ZM279.763 164.9L279.048 166.261L279.763 164.9ZM271.418 164.9L270.702 163.539H270.702L271.418 164.9ZM215.904 194.085L215.188 192.724L215.904 194.085ZM202.892 184.632L204.408 184.892L202.892 184.632ZM213.495 122.816L211.979 122.556L213.495 122.816ZM210.916 114.879L209.842 115.98L210.916 114.879ZM166.004 71.101L164.93 72.2023L166.004 71.101ZM170.974 55.8054L171.195 57.3273L170.974 55.8054ZM233.04 46.7866L232.819 45.2647L233.04 46.7866ZM239.792 41.881L238.413 41.2004V41.2004L239.792 41.881ZM83.4346 705.065L84.9 705.532L83.4346 705.065ZM59.3994 664.895L58.401 663.726L59.3994 664.895ZM78.7047 720.673L80.1389 721.228L80.1708 721.146L80.1931 721.06L78.7047 720.673ZM78.6983 720.69L77.2641 720.135L77.2628 720.138L78.6983 720.69ZM85.8334 759.758L86.5736 758.41H86.5736L85.8334 759.758ZM149.873 693.931L148.529 693.183L148.501 693.233L148.477 693.285L149.873 693.931ZM170.919 570.721L171.361 569.248H171.36L170.919 570.721ZM170.207 570.507L170.653 569.035H170.653L170.207 570.507ZM167.168 457.131L165.772 456.486L167.168 457.131ZM244.437 251.423L245.964 251.604L244.437 251.423ZM224.103 239.081L222.829 238.219L222.786 238.283L222.749 238.351L224.103 239.081ZM86.6606 389.039L86.2864 387.547L86.2864 387.547L86.6606 389.039ZM85.8334 389.247L86.2105 390.738L86.2105 390.738L85.8334 389.247ZM62.8302 393.435L62.6002 391.914L62.5834 391.917L62.5667 391.92L62.8302 393.435ZM62.8292 393.435L63.0592 394.956L63.076 394.953L63.0927 394.95L62.8292 393.435ZM35.3945 399.27L35.9714 400.696L35.3945 399.27ZM-26.0023 428.332L-25.2042 429.646L-26.0023 428.332ZM-145.972 494.158L-146.706 492.807L-147.134 493.039L-147.35 493.477L-145.972 494.158ZM-141.905 506.5L-142.599 507.873H-142.599L-141.905 506.5ZM-48.3697 487.987L-47.812 489.42L-48.3697 487.987ZM22.7985 475.644L24.1465 474.904L23.6852 474.064L22.7278 474.108L22.7985 475.644ZM-15.8354 634.039L-17.2593 633.458L-15.8354 634.039ZM-62.1657 729.132L-60.81 729.859L-62.1657 729.132ZM-78.8701 796.548L-78.9671 795.013L-78.8701 796.548ZM30.6219 696.404L31.7809 697.415L30.6219 696.404ZM85.2771 359.051L85.4508 360.579L85.2771 359.051ZM15.6009 302.798L14.0723 302.968L15.6009 302.798ZM143.876 293.534L145.404 293.364L145.386 293.198L145.332 293.04L143.876 293.534ZM71.2062 232.31L71.0326 230.781L71.2062 232.31ZM482.063 680.884L481.77 679.375L482.063 680.884ZM501.315 678.76L502.518 677.802L502.032 677.192L501.253 677.223L501.315 678.76ZM458.779 682.351L458.846 680.815L456.499 680.712L457.343 682.904L458.779 682.351ZM459.322 683.763L457.887 684.316V684.316L459.322 683.763ZM459.432 684.047L457.996 684.6L457.997 684.6L459.432 684.047ZM467.835 707.791L466.346 708.176L466.368 708.259L466.398 708.34L467.835 707.791ZM460.593 759.535L461.337 760.881L460.593 759.535ZM404.816 688.128L406.213 687.484L406.189 687.433L406.161 687.383L404.816 688.128ZM394.836 669.505L396.203 668.799L395.9 668.214L395.268 668.029L394.836 669.505ZM387.288 667.277L387.725 665.803L387.658 665.783L387.589 665.769L387.288 667.277ZM387.287 667.277L386.914 668.769L386.949 668.778L386.985 668.785L387.287 667.277ZM387.285 667.277L386.848 668.751L386.88 668.761L386.912 668.769L387.285 667.277ZM356.394 659.395L354.863 659.545L354.982 660.765L356.198 660.921L356.394 659.395ZM383.575 550.894L384.621 552.021L383.575 550.894ZM398.715 529.396L397.221 529.031L398.715 529.396ZM400.31 522.942L401.801 523.316L401.841 523.159L401.846 522.998L400.31 522.942ZM380.421 422.164L379.023 422.805L380.421 422.164ZM353.119 367.971L351.756 368.684L353.119 367.971ZM302.028 248.065L300.501 248.245L302.028 248.065ZM329.599 243.926L330.955 243.2L330.918 243.132L330.876 243.068L329.599 243.926ZM467.008 394.809L466.632 396.3L466.632 396.3L467.008 394.809ZM467.308 394.885L467.685 393.394L467.685 393.394L467.308 394.885ZM467.835 395.019L468.214 393.528L468.214 393.528L467.835 395.019ZM516.624 409.745L517.204 408.321L516.624 409.745ZM537.141 417.023L537.643 415.57L537.639 415.568L537.141 417.023ZM537.147 417.025L536.645 418.479L536.649 418.48L537.147 417.025ZM537.15 417.026L536.652 418.482L536.659 418.484L537.15 417.026ZM537.159 417.029L536.668 418.487L536.672 418.488L537.159 417.029ZM537.16 417.03L537.658 415.575L537.647 415.571L537.16 417.03ZM573.428 430.443L572.745 431.821H572.745L573.428 430.443ZM664.59 479.83L663.785 481.141L663.81 481.156L663.836 481.171L664.59 479.83ZM664.591 479.831L665.395 478.52L665.37 478.505L665.345 478.491L664.591 479.831ZM693.369 496.675L694.749 495.998L694.534 495.56L694.106 495.326L693.369 496.675ZM685.353 509.094L684.656 507.724L685.353 509.094ZM600.204 489.848L599.643 491.28L600.204 489.848ZM542.024 469.139L542.442 467.659L541.88 467.5L541.354 467.755L542.024 469.139ZM516.818 514.382L515.292 514.573L515.292 514.573L516.818 514.382ZM516.856 514.685L518.382 514.495L518.382 514.495L516.856 514.685ZM565.586 616.093L566.816 615.17L566.801 615.15L566.785 615.13L565.586 616.093ZM565.587 616.094L564.356 617.016L564.372 617.037L564.387 617.057L565.587 616.094ZM581.674 637.419L582.963 636.581L581.674 637.419ZM608.102 697.443L608.72 696.034L608.102 697.443ZM570.371 686.277L570.708 684.776L567.41 684.037L569.019 687.009L570.371 686.277ZM596.688 732.475L598.015 731.698L596.688 732.475ZM616.235 796.552L616.333 795.018L616.235 796.552ZM510.091 689.814L511.296 688.859L510.091 689.814ZM480.044 364.692L479.87 366.22L480.044 364.692ZM532.371 345.547L533.537 344.544L532.429 343.255L531.257 344.487L532.371 345.547ZM421.46 298.77L420.002 298.279L419.949 298.436L419.931 298.601L421.46 298.77ZM494.112 237.168L493.937 238.696L494.112 237.168ZM549.984 296.91L548.449 297.002L548.514 298.074L549.542 298.383L549.984 296.91ZM576.888 323.308L575.479 323.924L576.888 323.308ZM612.1 364.692L612.886 366.013L616.11 364.095L612.467 363.198L612.1 364.692ZM285.011 -15.0413C281.157 -22.8493 270.023 -22.8493 266.17 -15.0412L268.928 -13.68C271.653 -19.202 279.528 -19.202 282.253 -13.68L285.011 -15.0413ZM312.768 41.2004L285.011 -15.0413L282.253 -13.68L310.01 42.5617L312.768 41.2004ZM318.362 45.2647C315.942 44.913 313.85 43.3932 312.768 41.2004L310.01 42.5617C311.54 45.6622 314.498 47.8113 317.92 48.3085L318.362 45.2647ZM380.428 54.2834L318.362 45.2647L317.92 48.3085L379.986 57.3273L380.428 54.2834ZM386.25 72.2023C392.486 66.1246 389.045 55.5355 380.428 54.2834L379.986 57.3273C386.08 58.2128 388.513 65.7015 384.103 69.9998L386.25 72.2023ZM341.339 115.98L386.25 72.2023L384.103 69.9998L339.192 113.778L341.339 115.98ZM339.202 122.556C338.789 120.146 339.588 117.687 341.339 115.98L339.192 113.778C336.716 116.191 335.586 119.669 336.171 123.076L339.202 122.556ZM349.804 184.372L339.202 122.556L336.171 123.076L346.773 184.892L349.804 184.372ZM334.562 195.447C342.269 199.498 351.276 192.954 349.804 184.372L346.773 184.892C347.814 190.961 341.443 195.59 335.993 192.724L334.562 195.447ZM279.048 166.261L334.562 195.447L335.993 192.724L280.479 163.539L279.048 166.261ZM272.133 166.261C274.298 165.123 276.883 165.123 279.048 166.261L280.479 163.539C277.419 161.93 273.762 161.93 270.702 163.539L272.133 166.261ZM216.619 195.447L272.133 166.261L270.702 163.539L215.188 192.724L216.619 195.447ZM201.377 184.372C199.905 192.954 208.912 199.498 216.619 195.447L215.188 192.724C209.738 195.59 203.367 190.961 204.408 184.892L201.377 184.372ZM211.979 122.556L201.377 184.372L204.408 184.892L215.01 123.076L211.979 122.556ZM209.842 115.98C211.593 117.687 212.392 120.146 211.979 122.556L215.01 123.076C215.595 119.669 214.465 116.191 211.989 113.778L209.842 115.98ZM164.93 72.2023L209.842 115.98L211.989 113.778L167.077 69.9998L164.93 72.2023ZM170.753 54.2834C162.136 55.5355 158.695 66.1246 164.93 72.2023L167.077 69.9998C162.668 65.7015 165.101 58.2128 171.195 57.3273L170.753 54.2834ZM232.819 45.2647L170.753 54.2834L171.195 57.3273L233.261 48.3085L232.819 45.2647ZM238.413 41.2004C237.331 43.3932 235.239 44.913 232.819 45.2647L233.261 48.3085C236.683 47.8113 239.641 45.6622 241.171 42.5617L238.413 41.2004ZM266.17 -15.0412L238.413 41.2004L241.171 42.5617L268.928 -13.68L266.17 -15.0412ZM84.9 705.532C87.4913 697.39 90.4611 688.062 92.6574 679.343C94.8412 670.673 96.3164 662.402 95.7988 656.44C95.5405 653.466 94.7674 650.806 93.0822 648.997C91.312 647.098 88.7968 646.406 85.7173 646.861C82.7014 647.307 79.0179 648.86 74.5699 651.583C70.1003 654.319 64.7556 658.302 58.401 663.726L60.3979 666.065C66.6822 660.701 71.8921 656.829 76.1758 654.207C80.4809 651.571 83.7495 650.262 86.1674 649.904C88.5216 649.556 89.922 650.118 90.8321 651.095C91.8274 652.162 92.4995 654 92.7345 656.706C93.2032 662.105 91.8565 669.93 89.6748 678.591C87.5056 687.203 84.5661 696.44 81.9691 704.599L84.9 705.532ZM80.1931 721.06C81.2445 717.018 82.9621 711.62 84.9 705.532L81.9691 704.599C80.0414 710.655 78.2934 716.145 77.2163 720.286L80.1931 721.06ZM80.1325 721.245L80.1389 721.228L77.2704 720.118L77.2641 720.135L80.1325 721.245ZM86.5736 758.41C82.1956 756.006 79.387 753.257 77.654 750.362C75.9215 747.467 75.2074 744.332 75.1651 741.065C75.0794 734.446 77.7378 727.475 80.1338 721.242L77.2628 720.138C74.9149 726.246 71.9948 733.787 72.0895 741.105C72.1375 744.808 72.9534 748.497 75.0148 751.941C77.0758 755.385 80.3251 758.488 85.0932 761.106L86.5736 758.41ZM148.477 693.285C143.475 704.081 131.137 722.376 118.248 737C111.805 744.31 105.295 750.621 99.5633 754.607C96.6942 756.602 94.0936 757.963 91.8502 758.604C89.612 759.244 87.8838 759.129 86.5736 758.41L85.0932 761.106C87.3572 762.349 89.9932 762.334 92.6956 761.562C95.3927 760.791 98.3089 759.226 101.319 757.132C107.347 752.941 114.046 746.419 120.556 739.034C133.571 724.267 146.104 705.724 151.268 694.578L148.477 693.285ZM170.478 572.194C173.655 573.146 177.464 574.305 180.627 577.108C183.723 579.852 186.352 584.32 186.779 592.203C187.21 600.143 185.399 611.503 179.574 627.869C173.756 644.22 163.965 665.478 148.529 693.183L151.216 694.68C166.701 666.887 176.577 645.467 182.472 628.901C188.362 612.35 190.312 600.552 189.85 592.036C189.386 583.462 186.469 578.175 182.667 574.806C178.932 571.496 174.489 570.185 171.361 569.248L170.478 572.194ZM169.76 571.978C169.994 572.05 170.235 572.122 170.478 572.194L171.36 569.248C171.116 569.175 170.881 569.104 170.653 569.035L169.76 571.978ZM165.772 456.486C153.822 482.391 148.561 509.165 149.317 530.446C149.694 541.082 151.577 550.427 154.948 557.624C158.321 564.825 163.253 570.003 169.76 571.978L170.653 569.035C165.243 567.393 160.871 563.019 157.733 556.32C154.593 549.616 152.759 540.712 152.391 530.337C151.654 509.594 156.792 483.297 168.565 457.775L165.772 456.486ZM242.91 251.242C241.709 261.366 237.794 276.029 232.179 293.212C226.573 310.367 219.303 329.943 211.438 349.855C195.709 389.678 177.624 430.793 165.772 456.486L168.565 457.775C180.435 432.041 198.544 390.873 214.299 350.985C222.176 331.041 229.47 311.403 235.103 294.167C240.726 276.958 244.725 262.051 245.964 251.604L242.91 251.242ZM225.377 239.942C227.544 236.738 230.158 233.396 232.764 230.821C234.068 229.534 235.34 228.468 236.526 227.707C237.727 226.937 238.742 226.545 239.547 226.469C240.282 226.401 240.867 226.587 241.397 227.104C241.985 227.677 242.602 228.758 243.062 230.666C243.985 234.492 244.125 240.994 242.91 251.242L245.964 251.604C247.188 241.282 247.109 234.327 246.053 229.945C245.523 227.751 244.712 226.04 243.544 224.902C242.319 223.707 240.823 223.261 239.261 223.407C237.771 223.546 236.275 224.214 234.866 225.118C233.44 226.032 232 227.253 230.603 228.633C227.808 231.394 225.067 234.909 222.829 238.219L225.377 239.942ZM87.0349 390.531C95.71 388.354 112.317 384.163 135.786 363.692C159.201 343.267 189.404 306.677 225.457 239.81L222.749 238.351C186.802 305.022 156.808 341.273 133.764 361.374C110.773 381.428 94.6595 385.446 86.2864 387.547L87.0349 390.531ZM86.2105 390.738C86.4758 390.671 86.7501 390.602 87.0349 390.531L86.2864 387.547C86.0022 387.619 85.725 387.688 85.4563 387.756L86.2105 390.738ZM63.0603 394.956C70.9597 393.761 79.1569 392.522 86.2105 390.738L85.4563 387.756C78.5768 389.496 70.5382 390.714 62.6002 391.914L63.0603 394.956ZM63.0927 394.95L63.0938 394.95L62.5667 391.92L62.5657 391.92L63.0927 394.95ZM35.9714 400.696C42.4105 398.09 52.4093 396.567 63.0592 394.956L62.5992 391.915C52.1066 393.502 41.6734 395.07 34.8176 397.844L35.9714 400.696ZM-25.2042 429.646C-11.4569 421.302 25.8065 404.809 35.9714 400.696L34.8176 397.844C24.6487 401.959 -12.8203 418.531 -26.8003 427.017L-25.2042 429.646ZM-145.237 495.509C-108.669 475.642 -33.3793 434.608 -25.2042 429.646L-26.8003 427.017C-34.8921 431.929 -110.073 472.904 -146.706 492.807L-145.237 495.509ZM-141.211 505.128C-144.014 503.71 -145.071 501.737 -145.368 499.881C-145.68 497.931 -145.162 495.992 -144.593 494.839L-147.35 493.477C-148.136 495.067 -148.839 497.653 -148.405 500.366C-147.957 503.173 -146.303 505.999 -142.599 507.873L-141.211 505.128ZM-48.9273 486.553C-62.0273 491.651 -83.2812 497.287 -102.305 501.136C-111.81 503.059 -120.717 504.528 -127.736 505.26C-131.248 505.627 -134.255 505.805 -136.612 505.77C-139.054 505.734 -140.541 505.467 -141.211 505.128L-142.599 507.873C-141.236 508.562 -139.101 508.81 -136.658 508.846C-134.13 508.883 -130.989 508.692 -127.416 508.319C-120.265 507.573 -111.253 506.085 -101.695 504.151C-82.5929 500.286 -61.1459 494.608 -47.812 489.42L-48.9273 486.553ZM22.7278 474.108C7.80019 474.794 -27.5282 478.227 -48.9273 486.553L-47.812 489.42C-26.9169 481.29 7.97392 477.865 22.8691 477.181L22.7278 474.108ZM-14.4116 634.62C4.91295 587.289 17.1493 552.232 23.2775 526.658C26.3417 513.871 27.8923 503.4 28.0217 494.921C28.151 486.45 26.8644 479.853 24.1465 474.904L21.4505 476.385C23.816 480.692 25.0711 486.695 24.9463 494.874C24.8216 503.043 23.3222 513.272 20.2863 525.941C14.2143 551.281 2.05029 586.163 -17.2593 633.458L-14.4116 634.62ZM-60.81 729.859C-46.712 703.542 -29.2222 670.896 -14.4116 634.62L-17.2593 633.458C-32.0011 669.565 -49.4177 702.079 -63.5213 728.406L-60.81 729.859ZM-78.9671 795.013C-81.3406 795.163 -83.0391 794.894 -84.2196 794.359C-85.3481 793.847 -86.0745 793.064 -86.506 791.965C-86.9584 790.813 -87.1145 789.233 -86.8879 787.148C-86.6625 785.073 -86.0702 782.602 -85.1286 779.734C-81.34 768.195 -72.2278 751.172 -60.81 729.859L-63.5213 728.406C-74.8709 749.593 -84.1564 766.913 -88.0509 778.774C-89.0301 781.757 -89.6888 784.451 -89.9458 786.816C-90.2015 789.169 -90.0711 791.301 -89.3691 793.089C-88.6462 794.93 -87.3501 796.317 -85.4893 797.16C-83.6803 797.98 -81.4223 798.251 -78.773 798.083L-78.9671 795.013ZM29.4629 695.394C12.4376 714.913 -9.0381 739.534 -29.1796 759.46C-39.2518 769.424 -48.9547 778.179 -57.5723 784.524C-66.2662 790.926 -73.5939 794.674 -78.9671 795.013L-78.773 798.083C-72.4276 797.682 -64.4639 793.419 -55.7486 787.001C-46.9571 780.528 -37.1332 771.655 -27.0164 761.646C-6.77972 741.626 14.7719 716.916 31.7809 697.415L29.4629 695.394ZM58.401 663.726C53.2215 668.147 42.6158 680.314 29.4629 695.394L31.7809 697.415C45.0475 682.205 55.4422 670.295 60.3979 666.065L58.401 663.726ZM85.1035 357.523C51.3697 361.356 20.9229 336.798 17.1294 302.628L14.0723 302.968C18.05 338.796 49.9934 364.608 85.4508 360.579L85.1035 357.523ZM142.347 293.703C146.115 327.638 119.097 353.661 85.1035 357.523L85.4508 360.579C120.648 356.58 149.408 329.427 145.404 293.364L142.347 293.703ZM71.3798 233.838C104.846 230.035 130.318 258.347 142.42 294.028L145.332 293.04C133.098 256.966 106.758 226.722 71.0326 230.781L71.3798 233.838ZM17.1294 302.628C13.3356 268.456 37.6428 237.671 71.3798 233.838L71.0326 230.781C35.5784 234.81 10.095 267.142 14.0723 302.968L17.1294 302.628ZM482.356 682.394C488.339 681.234 494.739 680.565 501.377 680.297L501.253 677.223C494.492 677.497 487.935 678.179 481.77 679.375L482.356 682.394ZM458.711 683.888C466.86 684.244 474.832 683.853 482.356 682.394L481.77 679.375C474.538 680.777 466.816 681.163 458.846 680.815L458.711 683.888ZM460.757 683.211L460.214 681.799L457.343 682.904L457.887 684.316L460.757 683.211ZM460.867 683.494L460.757 683.21L457.887 684.316L457.996 684.6L460.867 683.494ZM469.324 707.406C467.782 701.441 464.423 692.726 460.867 683.494L457.997 684.6C461.583 693.911 464.86 702.425 466.346 708.176L469.324 707.406ZM461.337 760.881C471.202 755.43 474.273 744.889 474.392 734.546C474.511 724.176 471.689 713.57 469.272 707.242L466.398 708.34C468.725 714.431 471.43 724.642 471.316 734.511C471.202 744.408 468.28 753.53 459.849 758.189L461.337 760.881ZM403.419 688.771C408.526 699.865 418.937 719.769 429.882 735.935C435.347 744.005 441.002 751.231 446.248 755.957C448.866 758.316 451.466 760.13 453.964 761.078C456.491 762.037 459.041 762.15 461.337 760.881L459.849 758.189C458.572 758.895 457.016 758.947 455.055 758.202C453.065 757.446 450.793 755.912 448.306 753.672C443.342 749.199 437.852 742.219 432.429 734.21C421.601 718.217 411.27 698.468 406.213 687.484L403.419 688.771ZM393.47 670.211C396.508 676.091 399.834 682.304 403.47 688.872L406.161 687.383C402.538 680.838 399.226 674.65 396.203 668.799L393.47 670.211ZM386.851 668.752C389.303 669.479 391.825 670.227 394.404 670.981L395.268 668.029C392.695 667.276 390.178 666.53 387.725 665.803L386.851 668.752ZM386.985 668.785L386.986 668.785L387.589 665.769L387.589 665.769L386.985 668.785ZM386.912 668.769L386.914 668.769L387.66 665.785L387.658 665.785L386.912 668.769ZM356.198 660.921C363.622 661.871 374.256 665.018 386.848 668.751L387.723 665.802C375.243 662.103 364.32 658.86 356.589 657.87L356.198 660.921ZM382.529 549.766C374.882 556.859 365.986 565.1 360.027 581.274C354.09 597.391 351.115 621.244 354.863 659.545L357.924 659.245C354.2 621.183 357.2 597.849 362.914 582.337C368.607 566.882 377.038 559.054 384.621 552.021L382.529 549.766ZM397.221 529.031C394.992 538.163 389.373 543.419 382.529 549.766L384.621 552.021C391.404 545.731 397.734 539.905 400.209 529.761L397.221 529.031ZM398.818 522.569C398.312 524.591 397.78 526.741 397.221 529.031L400.209 529.761C400.767 527.476 401.297 525.331 401.801 523.316L398.818 522.569ZM379.023 422.805C392.706 452.659 399.85 492.989 398.773 522.887L401.846 522.998C402.94 492.653 395.716 451.842 381.819 421.523L379.023 422.805ZM351.756 368.684C361.955 388.193 371.729 406.891 379.023 422.805L381.819 421.523C374.485 405.521 364.669 386.746 354.482 367.259L351.756 368.684ZM300.501 248.245C302.218 262.817 309.369 282.053 318.867 302.992C328.381 323.971 340.332 346.83 351.756 368.684L354.482 367.259C343.048 345.387 331.14 322.608 321.668 301.722C312.177 280.797 305.212 261.942 303.555 247.885L300.501 248.245ZM330.876 243.068C328.625 239.72 325.438 235.679 321.989 232.147C318.576 228.651 314.759 225.499 311.24 224.124C309.466 223.431 307.605 223.126 305.858 223.63C304.057 224.151 302.644 225.453 301.662 227.426C300.699 229.361 300.118 231.993 299.916 235.372C299.712 238.768 299.884 243.015 300.501 248.245L303.555 247.885C302.952 242.766 302.796 238.713 302.986 235.557C303.176 232.385 303.711 230.214 304.416 228.796C305.102 227.417 305.91 226.817 306.712 226.585C307.568 226.338 308.694 226.432 310.121 226.989C313.004 228.116 316.444 230.87 319.788 234.296C323.097 237.684 326.168 241.578 328.323 244.784L330.876 243.068ZM467.385 393.318C459.015 391.205 442.905 387.162 419.92 366.984C396.881 346.759 366.894 310.284 330.955 243.2L328.243 244.652C364.287 311.931 394.482 348.745 417.891 369.295C441.354 389.893 457.957 394.11 466.632 396.3L467.385 393.318ZM467.685 393.394L467.385 393.318L466.632 396.3L466.932 396.376L467.685 393.394ZM468.214 393.528C468.041 393.484 467.865 393.44 467.685 393.394L466.931 396.376C467.11 396.421 467.285 396.466 467.456 396.509L468.214 393.528ZM517.204 408.321C506.931 404.137 484.477 397.668 468.214 393.528L467.456 396.509C483.72 400.649 505.988 407.074 516.044 411.17L517.204 408.321ZM537.639 415.568C528.878 412.57 521.098 409.907 517.204 408.321L516.044 411.17C520.042 412.798 527.935 415.498 536.643 418.479L537.639 415.568ZM537.648 415.571L537.643 415.57L536.64 418.477L536.645 418.479L537.648 415.571ZM537.648 415.571L537.645 415.57L536.649 418.48L536.652 418.482L537.648 415.571ZM537.65 415.572L537.641 415.569L536.659 418.484L536.668 418.487L537.65 415.572ZM537.647 415.571L537.645 415.57L536.672 418.488L536.674 418.489L537.647 415.571ZM574.112 429.065C567.479 425.776 551.356 420.262 537.658 415.575L536.662 418.485C550.49 423.217 566.344 428.646 572.745 431.821L574.112 429.065ZM665.394 478.52C648.356 468.065 629.832 456.7 574.112 429.065L572.745 431.821C628.381 459.414 646.825 470.734 663.785 481.141L665.394 478.52ZM665.345 478.491L665.344 478.49L663.836 481.171L663.837 481.172L665.345 478.491ZM694.106 495.326C681.961 488.685 673.875 483.723 665.395 478.52L663.787 481.142C672.273 486.35 680.414 491.345 692.631 498.025L694.106 495.326ZM686.051 510.465C689.571 508.673 692.132 506.049 693.639 503.449C694.392 502.151 694.902 500.824 695.118 499.578C695.331 498.35 695.279 497.077 694.749 495.998L691.988 497.353C692.136 497.654 692.234 498.209 692.088 499.051C691.945 499.875 691.585 500.859 690.978 501.906C689.765 503.998 687.641 506.204 684.656 507.724L686.051 510.465ZM599.643 491.28C612.938 496.486 632.263 502.352 649.284 506.4C657.794 508.424 665.765 510.003 672.141 510.814C675.326 511.219 678.148 511.438 680.457 511.418C682.7 511.398 684.693 511.156 686.051 510.465L684.656 507.724C683.981 508.067 682.614 508.323 680.43 508.342C678.314 508.361 675.643 508.159 672.529 507.763C666.306 506.971 658.452 505.419 649.995 503.408C633.081 499.385 613.897 493.558 600.765 488.416L599.643 491.28ZM541.606 470.619C559.722 475.741 584.383 485.304 599.643 491.28L600.765 488.416C585.537 482.453 560.731 472.83 542.442 467.659L541.606 470.619ZM518.344 514.192C517.557 507.876 516.651 500.437 519.373 492.849C522.067 485.337 528.419 477.437 542.694 470.523L541.354 467.755C526.54 474.93 519.506 483.366 516.477 491.81C513.476 500.179 514.512 508.317 515.292 514.573L518.344 514.192ZM518.382 514.495L518.344 514.192L515.292 514.573L515.329 514.875L518.382 514.495ZM566.785 615.13C547.694 591.357 524.324 562.231 518.382 514.495L515.329 514.875C521.387 563.538 545.27 593.251 564.387 617.056L566.785 615.13ZM566.817 615.171L566.816 615.17L564.356 617.016L564.356 617.016L566.817 615.171ZM582.963 636.581C578.473 629.681 572.824 622.649 566.786 615.131L564.387 617.057C570.45 624.606 575.995 631.513 580.385 638.258L582.963 636.581ZM607.484 698.851C608.566 699.326 609.561 699.646 610.456 699.772C611.347 699.896 612.258 699.844 613.063 699.431C614.822 698.528 615.062 696.55 614.913 694.905C614.754 693.146 614.101 690.947 613.136 688.485C612.162 685.997 610.828 683.138 609.235 680.026C602.874 667.597 592.186 650.754 582.963 636.581L580.385 638.258C589.619 652.449 600.22 669.162 606.497 681.427C608.064 684.488 609.348 687.248 610.272 689.607C611.206 691.99 611.731 693.863 611.85 695.183C611.91 695.841 611.857 696.255 611.781 696.488C611.717 696.681 611.662 696.692 611.658 696.694C611.612 696.718 611.404 696.799 610.883 696.726C610.366 696.653 609.656 696.445 608.72 696.034L607.484 698.851ZM570.035 687.777C587.351 691.659 601.26 696.118 607.484 698.851L608.72 696.034C602.237 693.188 588.112 688.678 570.708 684.776L570.035 687.777ZM598.015 731.698C589.914 717.87 580.806 702.324 571.724 685.545L569.019 687.009C578.129 703.84 587.262 719.429 595.361 733.252L598.015 731.698ZM616.138 798.087C618.614 798.245 620.728 797.979 622.4 797.156C624.134 796.302 625.27 794.905 625.823 793.101C626.356 791.359 626.331 789.303 625.94 787.053C625.547 784.787 624.764 782.21 623.668 779.362C619.309 768.031 609.664 751.58 598.015 731.698L595.361 733.252C607.077 753.25 616.551 769.431 620.797 780.467C621.853 783.211 622.564 785.583 622.91 787.578C623.258 789.589 623.217 791.105 622.882 792.2C622.566 793.231 621.979 793.934 621.041 794.397C620.039 794.89 618.53 795.157 616.333 795.018L616.138 798.087ZM508.885 690.769C525.864 712.194 546.761 738.564 566.258 759.759C576.005 770.354 585.438 779.697 593.887 786.492C598.111 789.89 602.119 792.676 605.823 794.664C609.511 796.645 612.99 797.887 616.138 798.087L616.333 795.018C613.805 794.857 610.773 793.832 607.278 791.955C603.798 790.086 599.951 787.423 595.815 784.095C587.541 777.44 578.227 768.226 568.522 757.677C549.116 736.581 528.291 710.304 511.296 688.859L508.885 690.769ZM500.112 679.719C502.89 683.203 505.824 686.906 508.885 690.769L511.296 688.859C508.235 684.996 505.298 681.29 502.518 677.802L500.112 679.719ZM479.87 366.22C500.558 368.585 520.053 360.722 533.485 346.607L531.257 344.487C518.454 357.941 499.898 365.414 480.219 363.164L479.87 366.22ZM419.931 298.601C415.93 334.871 444.671 362.195 479.87 366.22L480.219 363.164C446.243 359.279 419.22 333.098 422.988 298.939L419.931 298.601ZM494.287 235.64C476.466 233.602 460.915 240.194 448.334 251.819C435.777 263.421 426.143 280.056 420.002 298.279L422.917 299.261C428.941 281.385 438.34 265.241 450.421 254.078C462.478 242.938 477.171 236.779 493.937 238.696L494.287 235.64ZM551.519 296.817C549.63 265.58 525.938 239.26 494.287 235.64L493.937 238.696C524.041 242.139 546.646 267.19 548.449 297.002L551.519 296.817ZM578.296 322.691C571.074 306.198 560.434 298.437 550.426 295.436L549.542 298.383C558.629 301.107 568.595 308.204 575.479 323.924L578.296 322.691ZM612.467 363.198C609.649 362.505 604.297 359.698 598.011 353.33C591.758 346.996 584.652 337.205 578.296 322.691L575.479 323.924C581.969 338.744 589.276 348.86 595.822 355.491C602.335 362.089 608.165 365.307 611.732 366.185L612.467 363.198ZM531.206 346.55C538.449 354.968 550.152 364.957 564.394 370.295C578.692 375.655 595.559 376.322 612.886 366.013L611.313 363.37C594.916 373.126 579.046 372.503 565.473 367.415C551.845 362.307 540.546 352.69 533.537 344.544L531.206 346.55Z" fill="url(#paint1_linear_26_3060)"/>
</g>
<defs>
<linearGradient id="paint0_linear_26_3060" x1="273.349" y1="-19.3594" x2="622.5" y2="344.5" gradientUnits="userSpaceOnUse">
<stop stop-color="white"/>
<stop offset="1" stop-color="white" stop-opacity="0"/>
</linearGradient>
<linearGradient id="paint1_linear_26_3060" x1="-147" y1="54.1163" x2="693.697" y2="723.117" gradientUnits="userSpaceOnUse">
<stop stop-color="white"/>
<stop offset="1" stop-color="white" stop-opacity="0"/>
</linearGradient>
</defs>
</svg>
