<svg width="208" height="203" viewBox="0 0 208 203" fill="none" xmlns="http://www.w3.org/2000/svg">
<path d="M51.4578 170.682C66.1746 158.12 57.8584 177.975 56.1951 184.369L56.1936 184.373C55.0295 187.402 53.4557 191.496 57.9445 193.96C61.4528 195.887 71.1644 183.192 73.6593 177.807C89.1275 150.044 81.6429 148.428 78.649 147.52C72.8002 145.745 72.0821 132.318 77.9035 119.698C83.7249 107.078 95.667 79.3148 96.8645 69.219C98.0621 59.1231 94.037 62.9932 91.8748 66.1902C73.9117 99.5064 61.9363 102.03 57.9445 103.04C53.9527 104.05 48.4204 104.345 45.5672 105.499C43.0723 106.509 33.9029 110.566 30.5009 112.631C28.505 113.842 10.0429 123.905 1.06127 128.784C0.728622 129.457 0.462502 131.005 2.05922 131.813C4.05512 132.823 18.5254 129.794 25.0121 127.27C30.2014 125.251 38.817 124.409 42.4762 124.241C44.9711 128.784 42.4762 139.89 32.9957 163.11C23.5152 186.33 9.5439 203.493 17.5275 202.989C25.5111 202.484 47.0103 174.478 51.4578 170.682Z" fill="white"/>
<path d="M40.71 81.826C41.6634 90.4144 49.3185 96.5947 57.808 95.6301C66.2975 94.6655 73.1412 88.1411 72.1877 79.5526C69.2018 70.7485 62.8446 63.5641 54.3551 64.5287C45.8656 65.4933 39.7565 73.2375 40.71 81.826Z" fill="white"/>
<path d="M102.536 3.99836C103.343 2.36281 105.676 2.36281 106.483 3.99835L113.294 17.7996C113.615 18.4491 114.234 18.8993 114.951 19.0034L130.182 21.2166C131.987 21.4788 132.707 23.6969 131.401 24.97L120.38 35.7128C119.862 36.2183 119.625 36.9467 119.747 37.6606L122.349 52.8296C122.657 54.6273 120.771 55.9981 119.156 55.1494L105.534 47.9875C104.892 47.6505 104.127 47.6505 103.485 47.9875L89.8628 55.1494C88.2484 55.9981 86.3616 54.6273 86.6699 52.8296L89.2716 37.6606C89.3941 36.9467 89.1574 36.2183 88.6388 35.7128L77.6178 24.97C76.3117 23.6969 77.0324 21.4788 78.8374 21.2166L94.068 19.0034C94.7847 18.8993 95.4043 18.4491 95.7249 17.7996L102.536 3.99836Z" fill="#F6C401"/>
<path d="M154.207 167.436C139.494 154.797 150.022 174.775 151.685 181.208C152.849 184.256 154.397 191.425 149.908 193.906C146.4 195.844 138.715 181.801 136.22 176.383C120.756 148.448 128.239 146.823 131.232 145.909C137.079 144.123 136.054 123.815 130.234 111.118C124.414 98.4199 112.194 78.553 110.997 68.3949C109.8 58.2369 115.601 64.1625 117.763 67.3793C135.721 100.901 147.694 103.44 151.685 104.456C155.676 105.472 161.163 107.054 163.657 108.07C166.152 109.086 174.982 111.852 177.597 113.149C198.078 123.307 198.05 124.492 207.029 129.402C207.362 130.079 206.658 131.637 205.062 132.449C203.067 133.465 190.652 130.266 184.167 127.727C178.979 125.695 169.311 121.953 165.653 121.784C163.158 126.355 160.165 137.529 169.644 160.892C179.122 184.256 196.083 203.497 188.101 202.99C180.119 202.482 158.654 171.256 154.207 167.436Z" fill="white"/>
<path d="M134.723 137.431C137.923 124.323 137.473 129.904 136.719 121.784L173.482 121.226C162.508 124.781 163.275 130.294 163.714 133.821C165.653 149.395 175.091 156.979 179.62 163.94C184.149 170.9 190.068 180.409 186.105 178.669C182.142 176.929 166.027 172.501 155.176 174.606C144.7 176.637 130.377 170.106 124.338 169.332C121.684 142.211 132.856 145.084 134.723 137.431Z" fill="white"/>
<path d="M171.775 83.1249C170.821 91.7664 163.168 97.9848 154.681 97.0142C146.193 96.0437 139.351 89.479 140.305 80.8376C143.29 71.9792 149.645 64.7504 158.133 65.7209C166.62 66.6915 172.728 74.4835 171.775 83.1249Z" fill="white"/>
<path d="M166.82 91.4465C168.446 88.8882 167.612 82.9883 166.991 80.3582C169.496 79.5257 175.293 79.6605 178.445 86.8589C181.598 94.0573 185.519 96.6285 187.086 97.0142C178.201 102.301 169.873 95.5051 166.82 91.4465Z" fill="white"/>
</svg>
