<svg width="49" height="50" viewBox="0 0 49 50" fill="none" xmlns="http://www.w3.org/2000/svg">
<path d="M11.9905 40.782C15.4745 37.8424 13.5058 42.4887 13.112 43.985L13.1116 43.9859C12.836 44.6946 12.4635 45.6526 13.5261 46.2294C14.3567 46.6802 16.6558 43.7093 17.2464 42.4493C20.9083 35.9524 19.1364 35.5744 18.4277 35.3618C17.0431 34.9464 16.873 31.8044 18.2512 28.8512C19.6293 25.8981 22.4565 19.4011 22.74 17.0386C23.0235 14.6761 22.0706 15.5817 21.5587 16.3298C17.3062 24.1262 14.4711 24.7168 13.5261 24.953C12.5811 25.1893 11.2817 25.1893 10.6911 25.4255C10.1005 25.6618 7.61983 26.8431 7.0292 27.1974C6.5567 27.4809 2.18602 29.8356 0.0597391 30.9775C-0.0190117 31.135 -0.0820123 31.4972 0.295991 31.6862C0.768496 31.9225 4.19416 31.2137 5.7298 30.6231C6.95831 30.1506 8.99795 29.9537 9.86421 29.9143C10.4548 30.9775 9.86422 33.5763 7.61983 39.0101C5.37543 44.4439 2.0679 48.4602 3.95791 48.342C5.84793 48.2239 10.9376 41.6703 11.9905 40.782Z" fill="#029372"/>
<path d="M9.44608 19.9888C9.6718 21.9985 11.484 23.4448 13.4938 23.2191C15.5036 22.9933 17.1238 21.4666 16.898 19.4568C16.1912 17.3965 14.6862 15.7153 12.6764 15.941C10.6666 16.1667 9.22035 17.979 9.44608 19.9888Z" fill="#029372"/>
<path d="M23.9698 1.72745C24.1431 1.37626 24.6439 1.37626 24.8172 1.72745L26.2624 4.65572C26.3312 4.79517 26.4643 4.89183 26.6182 4.9142L29.8497 5.38376C30.2373 5.44008 30.392 5.91635 30.1116 6.18971L27.7732 8.46905C27.6619 8.5776 27.611 8.734 27.6373 8.88728L28.1893 12.1058C28.2555 12.4917 27.8504 12.7861 27.5038 12.6039L24.6134 11.0843C24.4757 11.0119 24.3113 11.0119 24.1736 11.0843L21.2833 12.6039C20.9366 12.7861 20.5315 12.4917 20.5977 12.1058L21.1497 8.88728C21.176 8.734 21.1252 8.5776 21.0138 8.46905L18.6755 6.18971C18.395 5.91635 18.5498 5.44008 18.9373 5.38376L22.1689 4.9142C22.3228 4.89183 22.4558 4.79517 22.5246 4.65572L23.9698 1.72745Z" fill="#F6C401"/>
<path d="M36.0215 39.8722C32.5375 36.9327 35.0304 41.579 35.4242 43.0752C35.6998 43.784 36.0665 45.4514 35.0033 46.0284C34.1728 46.4792 32.3529 43.213 31.7623 41.953C28.1003 35.4561 29.8722 35.0781 30.581 34.8654C31.9656 34.45 31.7229 29.727 30.3447 26.7738C28.9666 23.8207 26.073 19.2001 25.7895 16.8376C25.506 14.4751 26.8797 15.8533 27.3916 16.6014C31.6441 24.3977 34.4792 24.9883 35.4242 25.2246C36.3692 25.4609 37.6686 25.8288 38.2592 26.0651C38.8498 26.3013 40.9407 26.9447 41.5599 27.2463C46.4099 29.6089 46.4031 29.8845 48.5294 31.0264C48.6082 31.1839 48.4417 31.5461 48.0637 31.7351C47.5912 31.9714 44.6514 31.2273 43.1158 30.6367C41.8873 30.1642 39.598 29.2939 38.7317 29.2545C38.1411 30.3176 37.4323 32.9164 39.6767 38.3502C41.9211 43.784 45.9374 48.2592 44.0474 48.1411C42.1574 48.0229 37.0744 40.7606 36.0215 39.8722Z" fill="#03A551"/>
<path d="M31.4078 32.8938C32.1654 29.8451 32.059 31.1431 31.8802 29.2545L40.5857 29.1248C37.9869 29.9517 38.1687 31.2339 38.2726 32.0542C38.7317 35.6764 40.9665 37.4402 42.0391 39.059C43.1116 40.6777 44.5132 42.8893 43.5748 42.4846C42.6363 42.0799 38.8203 41.0502 36.2509 41.5396C33.7703 42.0121 30.3786 40.493 28.9486 40.3132C28.3201 34.0054 30.9655 34.6735 31.4078 32.8938Z" fill="#03A551"/>
<path d="M40.1814 20.2635C39.9556 22.2732 38.1434 23.7195 36.1336 23.4938C34.1238 23.268 32.5037 21.7412 32.7294 19.7315C33.4363 17.6712 34.9413 15.99 36.951 16.2157C38.9608 16.4414 40.4071 18.2537 40.1814 20.2635Z" fill="#03A551"/>
<path d="M39.008 22.1988C39.3932 21.6038 39.1956 20.2317 39.0486 19.62C39.6417 19.4264 41.0145 19.4577 41.761 21.1319C42.5074 22.8061 43.436 23.404 43.8071 23.4938C41.703 24.7233 39.731 23.1428 39.008 22.1988Z" fill="#03A551"/>
</svg>
