<svg width="143" height="50" viewBox="0 0 143 50" fill="none" xmlns="http://www.w3.org/2000/svg">
<path d="M11.9905 40.782C15.4745 37.8424 13.5058 42.4887 13.112 43.985L13.1116 43.9859C12.836 44.6946 12.4635 45.6526 13.5261 46.2294C14.3567 46.6802 16.6558 43.7093 17.2464 42.4493C20.9083 35.9524 19.1364 35.5744 18.4277 35.3618C17.0431 34.9464 16.873 31.8044 18.2512 28.8512C19.6293 25.8981 22.4565 19.4011 22.74 17.0386C23.0235 14.6761 22.0706 15.5817 21.5587 16.3298C17.3062 24.1262 14.4711 24.7168 13.5261 24.953C12.5811 25.1893 11.2817 25.1893 10.6911 25.4255C10.1005 25.6618 7.61983 26.8431 7.0292 27.1974C6.5567 27.4809 2.18602 29.8356 0.0597391 30.9775C-0.0190117 31.135 -0.0820123 31.4972 0.295991 31.6862C0.768496 31.9225 4.19416 31.2137 5.7298 30.6231C6.95831 30.1506 8.99795 29.9537 9.86421 29.9143C10.4548 30.9775 9.86422 33.5763 7.61983 39.0101C5.37543 44.4439 2.0679 48.4602 3.95791 48.342C5.84793 48.2239 10.9376 41.6703 11.9905 40.782Z" fill="#029372"/>
<path d="M9.44608 19.9888C9.6718 21.9985 11.484 23.4448 13.4938 23.2191C15.5036 22.9933 17.1238 21.4666 16.898 19.4568C16.1912 17.3965 14.6862 15.7153 12.6764 15.941C10.6666 16.1667 9.22035 17.979 9.44608 19.9888Z" fill="#029372"/>
<path d="M23.9698 1.72745C24.1431 1.37626 24.6439 1.37626 24.8172 1.72745L26.2624 4.65572C26.3312 4.79517 26.4643 4.89183 26.6182 4.9142L29.8497 5.38376C30.2373 5.44008 30.392 5.91635 30.1116 6.18971L27.7732 8.46905C27.6619 8.5776 27.611 8.734 27.6373 8.88728L28.1893 12.1058C28.2555 12.4917 27.8504 12.7861 27.5038 12.6039L24.6134 11.0843C24.4757 11.0119 24.3113 11.0119 24.1736 11.0843L21.2833 12.6039C20.9366 12.7861 20.5315 12.4917 20.5977 12.1058L21.1497 8.88728C21.176 8.734 21.1252 8.5776 21.0138 8.46905L18.6755 6.18971C18.395 5.91635 18.5498 5.44008 18.9373 5.38376L22.1689 4.9142C22.3228 4.89183 22.4558 4.79517 22.5246 4.65572L23.9698 1.72745Z" fill="#F6C401"/>
<path d="M36.0215 39.8722C32.5375 36.9327 35.0304 41.579 35.4242 43.0752C35.6998 43.784 36.0665 45.4514 35.0033 46.0284C34.1728 46.4792 32.3529 43.213 31.7623 41.953C28.1003 35.4561 29.8722 35.0781 30.581 34.8654C31.9656 34.45 31.7229 29.727 30.3447 26.7738C28.9666 23.8207 26.073 19.2001 25.7895 16.8376C25.506 14.4751 26.8797 15.8533 27.3916 16.6014C31.6441 24.3977 34.4792 24.9883 35.4242 25.2246C36.3692 25.4609 37.6686 25.8288 38.2592 26.0651C38.8498 26.3013 40.9407 26.9447 41.5599 27.2463C46.4099 29.6089 46.4031 29.8845 48.5294 31.0264C48.6082 31.1839 48.4417 31.5461 48.0637 31.7351C47.5912 31.9714 44.6514 31.2273 43.1158 30.6367C41.8873 30.1642 39.598 29.2939 38.7317 29.2545C38.1411 30.3176 37.4323 32.9164 39.6767 38.3502C41.9211 43.784 45.9374 48.2592 44.0474 48.1411C42.1574 48.0229 37.0744 40.7606 36.0215 39.8722Z" fill="#03A551"/>
<path d="M31.4078 32.8938C32.1654 29.8451 32.059 31.1431 31.8802 29.2545L40.5857 29.1248C37.9869 29.9517 38.1687 31.2339 38.2726 32.0542C38.7317 35.6764 40.9665 37.4402 42.0391 39.059C43.1116 40.6777 44.5132 42.8893 43.5748 42.4846C42.6363 42.0799 38.8203 41.0502 36.2509 41.5396C33.7703 42.0121 30.3786 40.493 28.9486 40.3132C28.3201 34.0054 30.9655 34.6735 31.4078 32.8938Z" fill="#03A551"/>
<path d="M40.1814 20.2635C39.9556 22.2732 38.1434 23.7195 36.1336 23.4938C34.1238 23.268 32.5037 21.7412 32.7294 19.7315C33.4363 17.6712 34.9413 15.99 36.951 16.2157C38.9608 16.4414 40.4071 18.2537 40.1814 20.2635Z" fill="#03A551"/>
<path d="M39.008 22.1988C39.3932 21.6038 39.1956 20.2317 39.0486 19.62C39.6417 19.4264 41.0145 19.4577 41.761 21.1319C42.5074 22.8061 43.436 23.404 43.8071 23.4938C41.703 24.7233 39.731 23.1428 39.008 22.1988Z" fill="#03A551"/>
<path d="M57.9357 21C57.5431 21 57.2225 20.9215 56.9739 20.7645C56.7253 20.5943 56.5552 20.3719 56.4636 20.0971C56.385 19.8092 56.385 19.4951 56.4636 19.1549C56.5552 18.8147 56.7384 18.4744 57.0132 18.1342L64.158 8.77127V9.69382H57.7002C57.2683 9.69382 56.9346 9.58259 56.6991 9.36013C56.4766 9.13767 56.3654 8.82361 56.3654 8.41795C56.3654 8.01229 56.4766 7.70477 56.6991 7.4954C56.9346 7.27294 57.2683 7.16171 57.7002 7.16171H65.5909C65.9966 7.16171 66.3172 7.24677 66.5527 7.41688C66.8014 7.57391 66.9715 7.78983 67.0631 8.06463C67.1547 8.33944 67.1547 8.6535 67.0631 9.00681C66.9715 9.34705 66.7883 9.68728 66.5135 10.0275L59.3686 19.3708V18.4679H66.1405C66.5724 18.4679 66.8995 18.5791 67.122 18.8016C67.3575 19.011 67.4753 19.3185 67.4753 19.7241C67.4753 20.1429 67.3575 20.4635 67.122 20.6859C66.8995 20.8953 66.5724 21 66.1405 21H57.9357ZM72.3041 21.1767C71.9246 21.1767 71.591 21.0785 71.3031 20.8822C71.0152 20.6729 70.7862 20.3653 70.6161 19.9597L67.6521 13.1289C67.5082 12.7886 67.4558 12.4746 67.4951 12.1867C67.5343 11.8857 67.6717 11.6502 67.9073 11.48C68.1559 11.2968 68.4962 11.2052 68.928 11.2052C69.2813 11.2052 69.5692 11.2903 69.7917 11.4604C70.0141 11.6174 70.2104 11.925 70.3805 12.383L72.6967 18.2716H72.0686L74.4829 12.3633C74.6661 11.9184 74.869 11.6174 75.0914 11.4604C75.3139 11.2903 75.6214 11.2052 76.014 11.2052C76.3542 11.2052 76.6225 11.2968 76.8188 11.48C77.0281 11.6502 77.1524 11.8792 77.1917 12.167C77.244 12.4549 77.1917 12.769 77.0347 13.1092L74.0118 19.9597C73.8417 20.3784 73.6127 20.6859 73.3248 20.8822C73.05 21.0785 72.7098 21.1767 72.3041 21.1767ZM83.482 21.2159C82.3435 21.2159 81.3621 21.0131 80.5376 20.6074C79.7263 20.1887 79.0982 19.6064 78.6533 18.8605C78.2214 18.1015 78.0055 17.2116 78.0055 16.1909C78.0055 15.1964 78.2149 14.3262 78.6336 13.5803C79.0524 12.8213 79.6347 12.2325 80.3806 11.8137C81.1396 11.3819 81.9967 11.166 82.952 11.166C83.6455 11.166 84.2737 11.2838 84.8363 11.5193C85.399 11.7418 85.8832 12.0689 86.2889 12.5007C86.6945 12.9195 87.0021 13.4364 87.2114 14.0514C87.4208 14.6534 87.5255 15.3273 87.5255 16.0732C87.5255 16.3218 87.447 16.5116 87.2899 16.6424C87.1329 16.7602 86.9039 16.8191 86.6029 16.8191H80.4395V15.288H85.386L85.0719 15.5628C85.0719 15.0263 84.9934 14.5814 84.8363 14.2281C84.6793 13.8617 84.4503 13.5869 84.1493 13.4037C83.8614 13.2205 83.5016 13.1289 83.0698 13.1289C82.5856 13.1289 82.1734 13.2401 81.8331 13.4625C81.4929 13.685 81.2312 14.0056 81.048 14.4244C80.8648 14.8431 80.7732 15.3469 80.7732 15.9358V16.0928C80.7732 17.0873 81.0022 17.8201 81.4602 18.2912C81.9313 18.7623 82.6248 18.9979 83.5408 18.9979C83.8549 18.9979 84.2148 18.9586 84.6204 18.8801C85.0261 18.8016 85.4056 18.6773 85.7589 18.5071C86.0599 18.3632 86.3281 18.3174 86.5637 18.3697C86.7992 18.409 86.9824 18.5137 87.1133 18.6838C87.2441 18.8539 87.3161 19.0502 87.3292 19.2727C87.3554 19.4951 87.3096 19.7176 87.1918 19.94C87.074 20.1494 86.8777 20.3261 86.6029 20.47C86.158 20.7187 85.6542 20.9019 85.0915 21.0196C84.5419 21.1505 84.0054 21.2159 83.482 21.2159ZM89.8822 21C89.5943 21 89.3522 20.928 89.1559 20.7841C88.9596 20.6271 88.8288 20.4308 88.7633 20.1952C88.6979 19.9597 88.6979 19.7045 88.7633 19.4297C88.8418 19.1549 88.9923 18.8997 89.2148 18.6642L94.0238 12.8933V13.5803H89.7644C89.4111 13.5803 89.1363 13.4822 88.94 13.2859C88.7437 13.0896 88.6456 12.8213 88.6456 12.4811C88.6456 12.1147 88.7437 11.8399 88.94 11.6567C89.1363 11.4604 89.4111 11.3623 89.7644 11.3623H95.4371C95.7904 11.3623 96.0718 11.4408 96.2812 11.5978C96.4905 11.7548 96.6279 11.9511 96.6934 12.1867C96.7719 12.4091 96.7784 12.6578 96.713 12.9326C96.6606 13.1943 96.5232 13.4429 96.3008 13.6785L91.374 19.5671V18.8016H95.9278C96.6737 18.8016 97.0467 19.168 97.0467 19.9008C97.0467 20.2541 96.9485 20.5289 96.7522 20.7252C96.556 20.9084 96.2812 21 95.9278 21H89.8822ZM102.046 21.2159C101.209 21.2159 100.469 21.0131 99.8281 20.6074C99.2 20.2018 98.7093 19.6194 98.356 18.8605C98.0027 18.1015 97.826 17.2051 97.826 16.1713C97.826 15.1375 98.0027 14.2477 98.356 13.5018C98.7093 12.7559 99.2 12.1801 99.8281 11.7745C100.469 11.3688 101.209 11.166 102.046 11.166C102.805 11.166 103.473 11.3492 104.048 11.7156C104.637 12.082 105.036 12.5596 105.246 13.1485H105.03V8.49647C105.03 7.9992 105.154 7.62626 105.403 7.37762C105.651 7.11591 106.018 6.98505 106.502 6.98505C106.973 6.98505 107.339 7.11591 107.601 7.37762C107.863 7.62626 107.994 7.9992 107.994 8.49647V19.6652C107.994 20.1494 107.863 20.5224 107.601 20.7841C107.353 21.0458 106.993 21.1767 106.522 21.1767C106.05 21.1767 105.684 21.0458 105.422 20.7841C105.174 20.5224 105.049 20.1494 105.049 19.6652V18.3305L105.265 19.096C105.082 19.7372 104.69 20.2541 104.088 20.6467C103.499 21.0262 102.818 21.2159 102.046 21.2159ZM102.929 18.9979C103.361 18.9979 103.734 18.8932 104.048 18.6838C104.362 18.4744 104.611 18.1669 104.794 17.7613C104.977 17.3425 105.069 16.8125 105.069 16.1713C105.069 15.2161 104.873 14.516 104.48 14.071C104.088 13.613 103.571 13.384 102.929 13.384C102.511 13.384 102.138 13.4822 101.811 13.6785C101.497 13.8748 101.248 14.1823 101.065 14.601C100.895 15.0067 100.81 15.5301 100.81 16.1713C100.81 17.1266 101.006 17.8398 101.398 18.3109C101.791 18.7689 102.301 18.9979 102.929 18.9979ZM111.769 21.1767C111.285 21.1767 110.912 21.0458 110.65 20.7841C110.402 20.5224 110.278 20.1494 110.278 19.6652V12.697C110.278 12.2128 110.402 11.8464 110.65 11.5978C110.912 11.3361 111.272 11.2052 111.73 11.2052C112.201 11.2052 112.561 11.3361 112.81 11.5978C113.058 11.8464 113.183 12.2128 113.183 12.697V13.8159L112.967 13.1681C113.268 12.5269 113.713 12.0362 114.301 11.696C114.903 11.3426 115.584 11.166 116.343 11.166C117.115 11.166 117.75 11.3165 118.247 11.6174C118.744 11.9053 119.117 12.3502 119.366 12.9522C119.614 13.5411 119.739 14.2935 119.739 15.2095V19.6652C119.739 20.1494 119.608 20.5224 119.346 20.7841C119.097 21.0458 118.731 21.1767 118.247 21.1767C117.776 21.1767 117.409 21.0458 117.148 20.7841C116.899 20.5224 116.775 20.1494 116.775 19.6652V15.3469C116.775 14.6795 116.65 14.2019 116.402 13.914C116.166 13.613 115.8 13.4625 115.303 13.4625C114.674 13.4625 114.171 13.6588 113.791 14.0514C113.425 14.444 113.241 14.9674 113.241 15.6217V19.6652C113.241 20.6729 112.751 21.1767 111.769 21.1767ZM124.486 24.7098C124.145 24.7098 123.864 24.6182 123.642 24.435C123.419 24.2518 123.288 24.0097 123.249 23.7088C123.21 23.4209 123.262 23.1134 123.406 22.7862L124.721 19.8812V21.0981L121.247 13.1289C121.116 12.7886 121.07 12.4746 121.11 12.1867C121.162 11.8857 121.306 11.6502 121.541 11.48C121.79 11.2968 122.13 11.2052 122.562 11.2052C122.915 11.2052 123.197 11.2903 123.406 11.4604C123.629 11.6174 123.831 11.925 124.015 12.383L126.331 18.2716H125.703L128.097 12.3633C128.281 11.9184 128.483 11.6174 128.706 11.4604C128.941 11.2903 129.256 11.2052 129.648 11.2052C129.988 11.2052 130.257 11.2968 130.453 11.48C130.662 11.6502 130.787 11.8792 130.826 12.167C130.878 12.4549 130.826 12.769 130.669 13.1092L126.056 23.5714C125.86 24.0163 125.637 24.3173 125.389 24.4743C125.153 24.6313 124.852 24.7098 124.486 24.7098ZM135.795 24.7098C135.455 24.7098 135.174 24.6182 134.951 24.435C134.729 24.2518 134.598 24.0097 134.559 23.7088C134.519 23.4209 134.572 23.1134 134.716 22.7862L136.031 19.8812V21.0981L132.557 13.1289C132.426 12.7886 132.38 12.4746 132.419 12.1867C132.471 11.8857 132.615 11.6502 132.851 11.48C133.1 11.2968 133.44 11.2052 133.872 11.2052C134.225 11.2052 134.506 11.2903 134.716 11.4604C134.938 11.6174 135.141 11.925 135.324 12.383L137.64 18.2716H137.012L139.407 12.3633C139.59 11.9184 139.793 11.6174 140.015 11.4604C140.251 11.2903 140.565 11.2052 140.958 11.2052C141.298 11.2052 141.566 11.2968 141.762 11.48C141.972 11.6502 142.096 11.8792 142.135 12.167C142.188 12.4549 142.135 12.769 141.978 13.1092L137.366 23.5714C137.169 24.0163 136.947 24.3173 136.698 24.4743C136.463 24.6313 136.162 24.7098 135.795 24.7098ZM58.6227 42C58.1124 42 57.7198 41.8626 57.445 41.5878C57.1702 41.313 57.0328 40.9204 57.0328 40.4101V29.7516C57.0328 29.2413 57.1702 28.8487 57.445 28.5739C57.7198 28.2991 58.1124 28.1617 58.6227 28.1617H63.3729C64.3543 28.1617 65.1918 28.3057 65.8854 28.5935C66.5789 28.8814 67.1024 29.2936 67.4557 29.8302C67.8221 30.3667 68.0053 31.0079 68.0053 31.7538C68.0053 32.5782 67.7697 33.2783 67.2986 33.8541C66.8276 34.4298 66.1798 34.8159 65.3554 35.0122V34.6981C66.3107 34.8682 67.05 35.2477 67.5734 35.8366C68.11 36.4123 68.3782 37.1648 68.3782 38.0939C68.3782 39.3239 67.9529 40.2858 67.1024 40.9793C66.2518 41.6598 65.0806 42 63.5888 42H58.6227ZM59.9378 39.7427H63.1766C63.9617 39.7427 64.5375 39.5922 64.9039 39.2912C65.2703 38.9772 65.4535 38.5192 65.4535 37.9172C65.4535 37.3153 65.2703 36.8638 64.9039 36.5628C64.5375 36.2619 63.9617 36.1114 63.1766 36.1114H59.9378V39.7427ZM59.9378 33.8541H62.8429C63.6019 33.8541 64.1646 33.7101 64.531 33.4222C64.8974 33.1343 65.0806 32.7025 65.0806 32.1267C65.0806 31.564 64.8974 31.1387 64.531 30.8509C64.1646 30.563 63.6019 30.419 62.8429 30.419H59.9378V33.8541ZM73.9786 42.2159C73.1672 42.2159 72.4933 42.0654 71.9568 41.7645C71.4203 41.4635 71.0212 41.012 70.7594 40.4101C70.5108 39.795 70.3865 39.0361 70.3865 38.1331V33.697C70.3865 33.1998 70.5108 32.8268 70.7594 32.5782C71.0212 32.3296 71.3876 32.2052 71.8587 32.2052C72.3297 32.2052 72.6961 32.3296 72.9579 32.5782C73.2196 32.8268 73.3504 33.1998 73.3504 33.697V38.2116C73.3504 38.7874 73.4682 39.2193 73.7038 39.5071C73.9393 39.7819 74.3123 39.9193 74.8226 39.9193C75.3853 39.9193 75.8433 39.7231 76.1966 39.3305C76.563 38.9248 76.7462 38.3948 76.7462 37.7406V33.697C76.7462 33.1998 76.8705 32.8268 77.1192 32.5782C77.3809 32.3296 77.7473 32.2052 78.2184 32.2052C78.7026 32.2052 79.069 32.3296 79.3176 32.5782C79.5793 32.8268 79.7102 33.1998 79.7102 33.697V40.6652C79.7102 41.6729 79.2325 42.1767 78.2773 42.1767C77.8062 42.1767 77.4463 42.0458 77.1977 41.7841C76.9491 41.5224 76.8247 41.1494 76.8247 40.6652V39.3501L77.1192 40.1156C76.8313 40.783 76.4191 41.2999 75.8826 41.6663C75.346 42.0327 74.7114 42.2159 73.9786 42.2159ZM83.5347 42.1767C83.0374 42.1767 82.658 42.0458 82.3962 41.7841C82.1345 41.5224 82.0037 41.1494 82.0037 40.6652V33.697C82.0037 33.2128 82.128 32.8464 82.3766 32.5978C82.6383 32.3361 82.9982 32.2052 83.4562 32.2052C83.9273 32.2052 84.2871 32.3361 84.5358 32.5978C84.7844 32.8464 84.9087 33.2128 84.9087 33.697V34.7177H84.7124C84.8695 33.9326 85.2162 33.3241 85.7528 32.8922C86.2893 32.4604 86.9828 32.2183 87.8334 32.166C88.1606 32.1398 88.4092 32.2249 88.5793 32.4212C88.7625 32.6044 88.8607 32.9119 88.8737 33.3437C88.8999 33.7494 88.8149 34.07 88.6186 34.3055C88.4354 34.5411 88.1213 34.685 87.6764 34.7374L87.2249 34.7766C86.479 34.842 85.9229 35.058 85.5565 35.4244C85.2032 35.7908 85.0265 36.3207 85.0265 37.0143V40.6652C85.0265 41.1494 84.8956 41.5224 84.6339 41.7841C84.3853 42.0458 84.0189 42.1767 83.5347 42.1767ZM93.2554 42.2159C92.5488 42.2159 91.9141 42.0785 91.3514 41.8037C90.7887 41.5289 90.3503 41.156 90.0363 40.6849C89.7222 40.2138 89.5652 39.6838 89.5652 39.0949C89.5652 38.3883 89.7484 37.8322 90.1148 37.4265C90.4812 37.0077 91.0766 36.7133 91.901 36.5432C92.7254 36.36 93.8181 36.2684 95.179 36.2684H96.2194V37.7994H95.1987C94.5313 37.7994 93.9882 37.8387 93.5695 37.9172C93.1638 37.9826 92.8694 38.1004 92.6862 38.2705C92.5161 38.4406 92.431 38.6762 92.431 38.9772C92.431 39.3436 92.5553 39.6445 92.8039 39.8801C93.0657 40.1156 93.4386 40.2334 93.9228 40.2334C94.3023 40.2334 94.636 40.1484 94.9239 39.9782C95.2248 39.795 95.4604 39.5529 95.6305 39.252C95.8006 38.9379 95.8857 38.5846 95.8857 38.192V35.9347C95.8857 35.3589 95.7548 34.9533 95.4931 34.7177C95.2314 34.4691 94.7865 34.3448 94.1583 34.3448C93.805 34.3448 93.419 34.3906 93.0002 34.4822C92.5946 34.5607 92.1431 34.6981 91.6458 34.8944C91.358 35.0252 91.1028 35.058 90.8803 34.9925C90.6579 34.914 90.4877 34.7832 90.37 34.5999C90.2522 34.4037 90.1933 34.1943 90.1933 33.9718C90.1933 33.7363 90.2587 33.5138 90.3896 33.3044C90.5205 33.082 90.7364 32.9184 91.0374 32.8137C91.6524 32.5651 92.2282 32.395 92.7647 32.3034C93.3143 32.2118 93.8181 32.166 94.2761 32.166C95.2837 32.166 96.1081 32.3165 96.7493 32.6174C97.4036 32.9053 97.8943 33.3568 98.2215 33.9718C98.5486 34.5738 98.7122 35.3524 98.7122 36.3077V40.6652C98.7122 41.1494 98.5944 41.5224 98.3589 41.7841C98.1233 42.0458 97.7831 42.1767 97.3382 42.1767C96.8933 42.1767 96.5465 42.0458 96.2979 41.7841C96.0623 41.5224 95.9445 41.1494 95.9445 40.6652V39.939L96.082 40.0568C96.0034 40.5017 95.8333 40.8877 95.5716 41.2148C95.323 41.5289 95.0024 41.7775 94.6098 41.9607C94.2172 42.1309 93.7658 42.2159 93.2554 42.2159ZM106.871 42.2159C106.099 42.2159 105.412 42.0262 104.81 41.6467C104.221 41.2541 103.828 40.7372 103.632 40.096L103.848 39.4483V40.6652C103.848 41.1494 103.724 41.5224 103.475 41.7841C103.226 42.0458 102.866 42.1767 102.395 42.1767C101.924 42.1767 101.558 42.0458 101.296 41.7841C101.048 41.5224 100.923 41.1494 100.923 40.6652V29.4965C100.923 28.9992 101.048 28.6263 101.296 28.3776C101.558 28.1159 101.931 27.985 102.415 27.985C102.886 27.985 103.246 28.1159 103.495 28.3776C103.756 28.6263 103.887 28.9992 103.887 29.4965V34.1485H103.652C103.861 33.5596 104.26 33.082 104.849 32.7156C105.438 32.3492 106.112 32.166 106.871 32.166C107.721 32.166 108.461 32.3688 109.089 32.7745C109.717 33.1801 110.208 33.7559 110.561 34.5018C110.914 35.2477 111.091 36.1375 111.091 37.1713C111.091 38.2051 110.914 39.1015 110.561 39.8605C110.208 40.6194 109.71 41.2018 109.069 41.6074C108.441 42.0131 107.708 42.2159 106.871 42.2159ZM105.987 39.9979C106.406 39.9979 106.773 39.8932 107.087 39.6838C107.414 39.4744 107.662 39.1669 107.833 38.7613C108.016 38.3425 108.107 37.8125 108.107 37.1713C108.107 36.2161 107.911 35.516 107.518 35.071C107.126 34.613 106.616 34.384 105.987 34.384C105.569 34.384 105.196 34.4822 104.869 34.6785C104.555 34.8748 104.306 35.1823 104.123 35.601C103.939 36.0067 103.848 36.5301 103.848 37.1713C103.848 38.1266 104.044 38.8398 104.437 39.3109C104.829 39.7689 105.346 39.9979 105.987 39.9979ZM116.162 42.2159C115.455 42.2159 114.821 42.0785 114.258 41.8037C113.695 41.5289 113.257 41.156 112.943 40.6849C112.629 40.2138 112.472 39.6838 112.472 39.0949C112.472 38.3883 112.655 37.8322 113.021 37.4265C113.388 37.0077 113.983 36.7133 114.808 36.5432C115.632 36.36 116.725 36.2684 118.086 36.2684H119.126V37.7994H118.105C117.438 37.7994 116.895 37.8387 116.476 37.9172C116.07 37.9826 115.776 38.1004 115.593 38.2705C115.423 38.4406 115.338 38.6762 115.338 38.9772C115.338 39.3436 115.462 39.6445 115.711 39.8801C115.972 40.1156 116.345 40.2334 116.829 40.2334C117.209 40.2334 117.543 40.1484 117.83 39.9782C118.131 39.795 118.367 39.5529 118.537 39.252C118.707 38.9379 118.792 38.5846 118.792 38.192V35.9347C118.792 35.3589 118.661 34.9533 118.4 34.7177C118.138 34.4691 117.693 34.3448 117.065 34.3448C116.712 34.3448 116.326 34.3906 115.907 34.4822C115.501 34.5607 115.05 34.6981 114.552 34.8944C114.265 35.0252 114.009 35.058 113.787 34.9925C113.564 34.914 113.394 34.7832 113.277 34.5999C113.159 34.4037 113.1 34.1943 113.1 33.9718C113.1 33.7363 113.165 33.5138 113.296 33.3044C113.427 33.082 113.643 32.9184 113.944 32.8137C114.559 32.5651 115.135 32.395 115.671 32.3034C116.221 32.2118 116.725 32.166 117.183 32.166C118.19 32.166 119.015 32.3165 119.656 32.6174C120.31 32.9053 120.801 33.3568 121.128 33.9718C121.455 34.5738 121.619 35.3524 121.619 36.3077V40.6652C121.619 41.1494 121.501 41.5224 121.266 41.7841C121.03 42.0458 120.69 42.1767 120.245 42.1767C119.8 42.1767 119.453 42.0458 119.205 41.7841C118.969 41.5224 118.851 41.1494 118.851 40.6652V39.939L118.989 40.0568C118.91 40.5017 118.74 40.8877 118.478 41.2148C118.23 41.5289 117.909 41.7775 117.516 41.9607C117.124 42.1309 116.672 42.2159 116.162 42.2159ZM125.322 42.157C124.837 42.157 124.465 42.0196 124.203 41.7448C123.954 41.4569 123.83 41.0578 123.83 40.5475V33.8344C123.83 33.311 123.954 32.9119 124.203 32.6371C124.465 32.3492 124.837 32.2052 125.322 32.2052C125.793 32.2052 126.153 32.3492 126.401 32.6371C126.663 32.9119 126.794 33.311 126.794 33.8344V40.5475C126.794 41.0578 126.669 41.4569 126.421 41.7448C126.172 42.0196 125.806 42.157 125.322 42.157ZM125.322 30.5957C124.772 30.5957 124.347 30.4714 124.046 30.2227C123.758 29.961 123.614 29.5946 123.614 29.1235C123.614 28.6393 123.758 28.2729 124.046 28.0243C124.347 27.7626 124.772 27.6317 125.322 27.6317C125.871 27.6317 126.29 27.7626 126.578 28.0243C126.866 28.2729 127.01 28.6393 127.01 29.1235C127.01 29.5946 126.866 29.961 126.578 30.2227C126.29 30.4714 125.871 30.5957 125.322 30.5957Z" fill="#029372"/>
</svg>
