<svg width="86" height="86" viewBox="0 0 86 86" fill="none" xmlns="http://www.w3.org/2000/svg">
<g id="Mask group">
<mask id="mask0_115_6082" style="mask-type:luminance" maskUnits="userSpaceOnUse" x="0" y="0" width="86" height="86">
<g id="Group">
<path id="path1623" fill-rule="evenodd" clip-rule="evenodd" d="M21.3736 0.0420166L25.0531 0.00292969L63.326 0.0185665C63.9072 0.0237783 64.2694 0.031593 64.629 0.0420166C66.5261 0.0915288 68.4414 0.200978 70.3177 0.53714C72.1972 0.854246 74.0193 1.44788 75.7249 2.29873C77.424 3.15347 78.9823 4.26879 80.3296 5.60562C81.6774 6.93609 82.8059 8.47178 83.6729 10.1555C84.5589 11.8676 85.114 13.6214 85.4554 15.5028C85.7941 17.3582 85.9062 19.2501 85.9557 21.1264C85.9818 21.9863 85.9922 22.8463 85.9948 23.7088L86 25.2437V59.2169C86 60.2384 86 61.2625 85.9948 62.2866C85.9896 63.1466 85.9818 64.0065 85.9557 64.8665C85.9036 66.7427 85.7941 68.6372 85.4554 70.49C85.1338 72.352 84.5329 74.1548 83.6729 75.8373C82.8054 77.5215 81.677 79.058 80.3296 80.3898C78.9771 81.7262 77.4233 82.842 75.7249 83.6967C74.0194 84.5477 72.1972 85.1413 70.3177 85.4583C68.4414 85.7919 66.5261 85.9013 64.629 85.9534L58.9116 85.9977L22.674 85.9769C22.2404 85.9722 21.807 85.9635 21.3736 85.9508C19.4765 85.9039 17.5612 85.7919 15.6849 85.4583C13.8063 85.1411 11.985 84.5475 10.2803 83.6967C6.86799 81.9794 4.08472 79.229 2.32707 75.8373C1.46837 74.1543 0.867514 72.3517 0.544633 70.49C0.205865 68.6372 0.0964175 66.7427 0.0469053 64.8691C0.0208463 64.0091 0.0130302 63.1466 0.00781838 62.2866L0 60.7465V26.7786C0 25.7571 6.75902e-07 24.7329 0.00781838 23.7114C0.0130302 22.8515 0.0234522 21.9915 0.0469053 21.129C0.0990234 19.2527 0.208471 17.3608 0.544633 15.5054C0.867321 13.6437 1.46819 11.8411 2.32707 10.1581C4.08216 6.76546 6.86498 4.01456 10.2777 2.29873C11.9833 1.44785 13.8054 0.854209 15.6849 0.53714C17.5612 0.203584 19.4765 0.0941347 21.3736 0.0420166Z" fill="white"/>
</g>
</mask>
<g mask="url(#mask0_115_6082)">
<g id="g1636">
<path id="path1626" d="M-5.21184 -5.20898H91.2066V91.2094H-5.21184V-5.20898Z" fill="#19AA1E"/>
<path id="path1628" fill-rule="evenodd" clip-rule="evenodd" d="M-5.21184 -5.20898H91.2066V26.0618L-5.21184 11.1715V-5.20898Z" fill="#FFB919"/>
<path id="path1630" fill-rule="evenodd" clip-rule="evenodd" d="M-5.21184 80.4778L91.2066 65.1504V91.2094H-5.21184V80.4778Z" fill="#82D714"/>
<path id="path1632" fill-rule="evenodd" clip-rule="evenodd" d="M-5.21184 10.4277L28.4439 15.676C32.6333 13.0285 37.6174 11.5765 42.9959 11.5765C50.4457 11.5765 57.1418 14.361 62.0149 19.2477C62.6284 19.8658 63.2069 20.5102 63.7532 21.1808L91.2066 25.4611V29.266L66.5403 25.4173C68.3864 28.9395 69.3535 32.8544 69.3596 36.8294C69.3596 41.9843 68.2056 47.1247 65.8158 52.2855L65.7456 52.4429L64.729 54.6122H62.3333C57.3785 54.6122 54.0947 56.0904 51.9445 58.7117C50.2588 60.7672 49.283 63.543 48.9558 66.5694L48.9441 66.6628L48.8973 67.1468L48.8769 67.3567L48.836 67.7678C48.7104 69.1207 48.6286 70.2666 48.5847 71.1996L91.2066 64.5518V68.3568L-5.21184 83.393V79.588L37.4567 72.9344L37.4392 72.0801L37.4334 71.841L37.4275 71.7156L37.4217 71.5261C37.3837 70.4911 37.2873 69.1644 37.1354 67.555L37.1062 67.2488L37.0536 66.7211C36.7497 63.6771 35.7886 60.8693 34.1028 58.7816C31.9789 56.1429 28.7273 54.6413 23.8104 54.6122H21.2628L20.2491 52.4429C17.8125 47.2296 16.6322 42.0368 16.6322 36.8294C16.6322 30.2807 19.2937 23.9478 23.9798 19.2477L24.3888 18.8483L-5.21184 14.2298V10.4277Z" fill="white"/>
<path id="path1634" fill-rule="evenodd" clip-rule="evenodd" d="M42.9974 15.6367C56.193 15.6367 65.1475 25.5606 65.1475 36.2681C65.1475 40.5667 64.1882 45.0389 61.9489 49.7293C48.968 49.7293 45.7636 58.8136 45.1565 64.534L45.1164 64.9118C44.9131 66.9548 44.7929 68.592 44.7614 69.8233L41.2448 70.3607V70.2487C41.1959 68.43 41.0697 66.614 40.8668 64.8054L40.8582 64.7047C40.297 58.9983 37.1613 49.7293 24.0487 49.7293C21.8065 45.0389 20.8472 40.5667 20.8472 36.2681C20.8472 25.5606 29.8046 15.6367 42.9974 15.6367Z" fill="#0073FA"/>
</g>
</g>
</g>
</svg>
